<?xml version="1.0" encoding="UTF-8"?><svg id="Layer_2" xmlns="http://www.w3.org/2000/svg" xmlns:xlink="http://www.w3.org/1999/xlink" viewBox="0 0 1006 688"><defs><style>.cls-1,.cls-2,.cls-3,.cls-4,.cls-5,.cls-6,.cls-7,.cls-8,.cls-9,.cls-10,.cls-11,.cls-12,.cls-13,.cls-14,.cls-15,.cls-16,.cls-17{fill:none;}.cls-2{stroke-width:.54px;}.cls-2,.cls-3,.cls-4,.cls-5,.cls-6,.cls-7,.cls-8,.cls-9,.cls-10,.cls-11,.cls-12,.cls-13,.cls-14,.cls-15,.cls-17{stroke-miterlimit:10;}.cls-2,.cls-3,.cls-8{stroke:#377e22;}.cls-3{stroke-width:.56px;}.cls-4{stroke-width:.83px;}.cls-4,.cls-9,.cls-17{stroke:red;}.cls-5,.cls-6,.cls-7{stroke-width:.85px;}.cls-5,.cls-12,.cls-13{stroke:#7e1c69;}.cls-6,.cls-10,.cls-15{stroke:#efead8;}.cls-7,.cls-11,.cls-14{stroke:#fbfa75;}.cls-18{fill:#0000f5;}.cls-8{stroke-width:.44px;}.cls-9{stroke-width:.64px;}.cls-10,.cls-11,.cls-12{stroke-width:.69px;}.cls-13,.cls-14,.cls-15{stroke-width:.89px;}.cls-16{clip-path:url(#clippath);}.cls-17{stroke-width:.8px;}</style><clipPath id="clippath"><path class="cls-1" d="m1003.14,526.52c-1.45-.54-2.9-1.08-4.35-1.62l-.16-.11c-8.32-4.82-7.44-10.93-6.62-20.58.76-8.92,7.28-11.15,13.66-13.1v-27.64c-.82-.64-1.65-1.29-2.48-1.94-8.17-2.74-11.3-6.92-11.4-15.23-.15-12.36,1.9-15.99,10.66-19.68,1.27-.53,3.11-2.45,3.09-3.7-.1-8.84-.61-17.66-1-26.5-.44,0-.89-.02-1.33-.03-7.02-2.15-11.35-8.02-11.42-15.46-.12-12.72,1.86-16.08,10.58-19.52,1.42-.56,2.98-3.22,3.24-5.18.52-3.85.04-7.87.19-11.82.27-7.38.83-13.79-7.25-16.46-6.27-2.07-8.28-9.55-6.6-19.82,1.15-7.03,5.05-11.89,11.21-12.73.84-.17,1.67-.34,2.51-.52.02-7.92.33-15.87-.1-23.76-.12-2.26-2.04-5.42-3.74-6.28-4.94-2.48-9.17-5.87-9.89-12.7-.83-7.9-.97-16.15,6.48-20.13l.58-.26.21.73c2.16-.99,4.31-1.98,6.46-2.97.09-1,.18-1.99.27-3-.06-6.35-.34-12.71-.12-19.04.18-4.91-.97-7.13-5-8.78-4.92-2.01-9.08-5.98-9.11-14.14-.03-8.13.38-15.46,7.57-18.7l.02.25c1.71-.48,3.44-.96,5.15-1.44.49-1.64.98-3.29,1.48-4.93-.05-2.89-.27-5.79-.14-8.67.4-8.92.48-16.09-8.28-20.75-8.9-4.73-8.37-19.91-.31-28.73.24.3.48.6.72.91.49-.77.97-1.54,1.45-2.32,3.11-1.09,7.2-.73,6.58-7.22-.07-3.15-.31-6.31-.16-9.45.36-8.17.52-14.54-7.87-18.34-9.26-4.2-8.61-20.47.16-29.58l-.1.13c1.73-.4,3.45-.79,5.18-1.19.62-2.07,1.24-4.15,1.86-6.22-.13-8.67-.26-17.32-.4-25.98-6.79-.4-13.59-.78-20.38-1.18-.55.98-1.11,1.98-1.67,2.96-.58,1.25-1.18,2.49-1.77,3.72.02,0,.37-.12.37-.12-7.53,13.21-19.09,11.81-24.84-2.76-.76-1.92-3.16-3.76-4.91-3.94-5.37-.57-10.78-.3-16.18-.36-.34.22-.71.32-1.09.3-.46.42-.93.82-1.39,1.23-.79.64-1.57,1.28-2.37,1.91-.46,1.05-.94,2.11-1.4,3.16-.43.61-.85,1.21-1.29,1.82l.47-.09.08.6c-7.32,10.83-18.38,9.53-22.93-3.13-1.65-4.56-3.59-6.02-7.38-5.76-5.18.35-10.39-.07-15.59-.15-1.08.67-2.16,1.34-3.24,2.01-.61,1.6-1.21,3.19-1.83,4.8h.18c-1.98,7.69-7.04,7.48-12.12,7.93-5.77.51-9.53-2.8-12.22-8.69-.71-1.56-1.01-3.42-1.9-6.58-7.86.91-16.02,1.84-24.2,2.79-1.46,7.81-6.72,13.59-12.8,14.01-6.07.42-11.41-5.24-14.69-15.73h-23.01c-.34.5-.69.99-1.04,1.49-1.94,6.84-4.84,12.16-11.33,12.77-7.33.67-13.02-1.68-15.76-11.3-.41-1.45-2.4-3.01-3.71-3.08-5.84-.32-11.71-.26-17.56.02-1.21.06-2.76,1.28-3.48,2.56-10.59,18.88-19.88,18.15-28.58-2.56h-21.85c-2.58,4.24-4.54,9.6-7.86,12.5-8.21,7.2-15.95,3.27-20.45-9.33-.26-1.05-.52-2.11-.78-3.16h-23.07c-3.2,7.86-6.67,15.4-14.34,15.67-6.01.21-10.71-3.58-13.17-10.92-.76-1.55-1.54-3.1-2.3-4.66-4.16-.09-8.34.06-12.48-.32-2.52-.24-4.76-.23-6.77.46-.55.19-1.08.43-1.6.73-.4.72-.81,1.45-1.22,2.16-.58,1.25-1.18,2.49-1.77,3.72.02,0,.37-.12.37-.12-2.79,4.89-6.12,7.78-9.5,8.73-4.88,2-10.81-.91-15.68-8,.25-.3.49-.6.75-.91-.61-.61-1.23-1.24-1.83-1.85-1.37-1.58-2.75-3.15-4.11-4.73-1.27-.12-2.55-.2-3.83-.25h-.06c-1.54.07-3.06.1-4.59.08-3.03-.07-5.89-.29-8.51.46-.35.32-.7.62-1.06.94-.79.64-1.57,1.28-2.37,1.91-.46,1.05-.94,2.11-1.4,3.16-.43.61-.85,1.21-1.29,1.82l.47-.09.08.6c-5.12,7.57-12.06,9.21-17.33,5.19-2.52-1.18-4.85-3.18-6.5-5.84-1.94-2.07-1.8-6.85-4.33-8.16-.64-.11-1.36-.14-2.16-.09-1.77.12-3.53.15-5.31.13-1.49.08-2.97.09-4.44-.06-.42-.05-.82-.08-1.22-.09-.15,0-.31-.02-.46-.02-2.85-.11-5.29.37-7.46,2.04-.59,1.55-1.18,3.1-1.77,4.66h.18c-1.34,5.21-4.09,6.79-7.3,7.41-5.03,4.09-11.87,2.91-17.29-5.13,0-.05.08-.67.08-.67l.54.1c-.55-.58-1.11-1.15-1.66-1.73-1.3-2.81-2.3-6.14-4.86-6.82-6.07.7-12.28,1.41-18.51,2.14-.48.06-.95.11-1.43.16-1.46,7.81-6.72,13.59-12.8,14.01-6.07.42-11.41-5.24-14.69-15.73h-23.01c-.34.5-.69.99-1.04,1.49-1.94,6.84-4.84,12.16-11.33,12.77-7.33.67-13.02-1.68-15.76-11.3-.41-1.45-2.4-3.01-3.71-3.08-5.84-.32-11.71-.26-17.56.02-1.21.06-2.76,1.28-3.48,2.56-10.59,18.88-19.88,18.15-28.58-2.56h-21.85c-2.58,4.24-4.54,9.6-7.86,12.5-8.21,7.2-15.95,3.27-20.45-9.33-.26-1.05-.52-2.11-.78-3.16h-23.07c-3.2,7.86-6.67,15.4-14.34,15.67-6.01.21-10.71-3.58-13.17-10.92-.76-1.55-1.54-3.1-2.3-4.66-4.16-.09-8.34.06-12.48-.32-6.04-.56-10.42.26-14.03,8.51-4.85,11.07-14.73,9.98-22.14-.82.25-.3.49-.6.75-.91-.61-.61-1.23-1.24-1.83-1.85-1.48-1.7-2.97-3.4-4.44-5.1-2.72.08-5.44.26-8.15.21-6.58-.14-12.38-1.04-16.54,9.04-3.8,9.21-16.02,7.7-21.36-.91-2.44-2.61-1.6-9.5-6.89-8.37-3.12.09-6.26.53-9.35.21-5.89-.6-10.19.62-13.69,8.16-4.64,9.96-14.39,11.44-21.64.71,0-.05.08-.67.08-.67l.54.1c-.55-.58-1.11-1.15-1.66-1.73-1.64-3.53-2.79-7.88-7.17-6.78-3.96.09-7.92.23-11.88.26C2.11.81.27,3.19.24,8.05c-.03,6.05-.14,12.1-.22,18.15.55,5.92,4.13,7.65,7.89,9.15,4.96,4.1,8.6,9.68,7.32,17.32-1.23,7.27-4.58,13.07-11.05,15.21-1.63.54-3.56,3.88-3.77,6.17-.58,6.21-.31,12.55-.37,18.83.28,5.17,2.84,6.95,6.55,7.02,8.1,3.28,8.96,13.09,8.24,20.35-.85,8.4-7.63,12.84-14.54,14.84v26.27c1.87,1.54,3.74,3.08,5.62,4.62.7.55,1.4,1.11,2.1,1.64.2-.27.41-.55.62-.82,10.27,10.51,8.4,26.85-4.16,32.29-3.74,1.63-4.32,3.65-4.29,7.65.06,6.58-.09,13.16-.15,19.75.52.95,1.03,1.91,1.55,2.87,1.32.61,2.63,1.23,3.94,1.84l-.11-.18c5.77,1.83,8.84,6.16,8.81,14.01-.05,11.89-1.39,16.2-8.96,18.85-4.68,1.63-5.27,4.48-5.09,9.44.24,6.6.12,13.22.16,19.84,1.27,1.04,2.52,2.07,3.79,3.11,6.64,1.5,10.76,7.36,11.3,16.08.4,6.64-4.64,16.09-10.4,17.25-4.36.88-5.06,3.41-4.79,7.9.48,8,.91,16.02,1.37,24.03,7.11-.28,13.01,6.34,13.73,15.44.74,9.31-4.86,16.89-13.56,18.36-.46,9.08-1.08,18.15-1.21,27.24-.01,1.33,2.16,3.38,3.59,3.95,7.05,2.75,11.46,9.69,11.25,18.36-.18,7.42-5.59,14.55-12.63,16.64-.84.65-1.69,1.29-2.52,1.95-.01,6.3.4,12.67-.17,18.89-.6,6.5,1.69,9.12,6.13,11.19,10.24,4.79,12.31,20.52,4.09,29.49-.56.61-1.49.7-2.25,1.03-2.18.98-4.36,1.97-6.53,2.96-.42,8.86-1.15,17.73-.98,26.57.04,1.74,3.39,3.92,5.5,4.92,5.56,2.65,9.8,10.28,9.38,17.8-.38,6.9-5.56,13.9-11.35,15.34-.8.2-1.6.39-2.4.59-.48,8.07-1.08,16.13-1.39,24.21-.16,4.23.88,6.5,5.04,7.81,3.37,1.05,7.62,5.95,8.41,10.08,1.41,7.39,1.9,16.1-5.39,20.66l-.48-.17.13-.61c-.47.57-.94,1.12-1.42,1.68-2.28,2.03-6.77,1.38-5.71,7.48.01,7.09.03,14.18.04,21.27,3.45.75,6.88,1.86,10.36,2.15,3.88.33,7.8-.08,11.7-.16.17-1.82.35-3.65.52-5.47.64-1.12,1.27-2.22,1.91-3.34l-.28.26-.2-.36c2.8-8.24,8.49-8.46,14.21-7.68,7.96,1.09,10.35,8.98,12.12,17.74h22.01c.83-1.67,1.66-3.35,2.49-5.03.39-1.62.79-3.22,1.18-4.84.46-.58.91-1.15,1.37-1.73l-.41.08-.06-.52c10.24-12.15,20.77-7.41,25.32,12.11h19.25c1.68-1.16,3.36-2.32,5.03-3.49.41-2.17.83-4.35,1.24-6.51l-.1.04c3.56-8.87,9.98-9,16.23-7.44,6.71,1.67,8.43,9.21,9.86,17.38h21.92c.85-.62,1.7-1.25,2.55-1.87.38-2.21.76-4.41,1.15-6.62l-.09.14c2.09-9.22,7.95-9.53,14-9.46,5.89.07,9.69,4.34,11.02,10.84,1.23,5.98,3.65,7.12,7.92,6.81,5.43-.39,10.9-.09,16.35-.08.43-.57.86-1.12,1.29-1.69,0-.52.07-1.04.19-1.54.32-1.13.64-2.27.97-3.41l-.1.09c1.1-7.83,5.11-10.95,11.09-11.08,9.32-.19,12.57,3.21,16.23,17.29h23.19v-.67s.15-.65.15-.65c1.23-10.17,5.32-15.74,11.75-15.98,9.41-.37,13.47,3.43,15.49,14.48,1.18,1.04,2.34,2.94,3.54,3,6.64.29,13.3.14,19.8.14,5.73-16.78,8.84-19.65,18.63-17.49,5.66,1.25,9.18,6.85,9.95,15.81.19.45.28.94.28,1.45,6.69.09,13.39.51,20.06.04,1.71-.12,4.28-2.72,4.76-4.8,1.62-7.03,4.65-11.65,10.51-12.53,8.27-1.24,11.59,1,15.28,9.72l.06.42-.32.08c.85,2.4,1.71,4.8,2.56,7.2.37.15.75.28,1.12.43,5.86-.1,11.75.16,17.57-.52.51-.06,1.01-.31,1.51-.7.5-.37.99-.87,1.46-1.42.13-1.36.26-2.73.39-4.09.64-1.12,1.27-2.22,1.91-3.34l-.28.26-.2-.36c2.37-6.99,6.83-8.2,11.62-7.94,4.69-1.19,9.7.15,12.98,6.53,1.98,3.82,3.97,7.64,5.95,11.46h17.79c.83-1.67,1.66-3.35,2.49-5.03.39-1.62.79-3.22,1.18-4.84.46-.58.91-1.15,1.37-1.73l-.41.08-.06-.52c4.34-5.15,8.73-7.27,12.7-6.51,3.56-.02,7.28,2.33,10.99,7.12,2.86,2.72,1.34,10.41,5.64,11.5h2.42s.07,0,.1-.02h12.74c1.67-1.15,3.33-2.32,5-3.47.41-2.17.83-4.35,1.24-6.51l-.1.04c2.85-7.13,7.56-8.61,12.54-8.1,1.22.11,2.46.35,3.69.66,6.71,1.67,8.43,9.21,9.86,17.38h21.92c.85-.62,1.7-1.25,2.55-1.87.38-2.21.76-4.41,1.15-6.62l-.09.14c2.09-9.22,7.95-9.53,14-9.46,5.89.07,9.69,4.34,11.02,10.84,1.23,5.98,3.65,7.12,7.92,6.81,5.43-.39,10.9-.09,16.35-.08.43-.57.86-1.12,1.29-1.69,0-.52.07-1.04.19-1.54.32-1.13.64-2.27.97-3.41l-.1.09c1.1-7.83,5.11-10.95,11.09-11.08,9.32-.19,12.57,3.21,16.23,17.29h23.19v-.67s.15-.65.15-.65c1.23-10.17,5.32-15.74,11.75-15.98,9.41-.37,13.47,3.43,15.49,14.48,1.18,1.04,2.34,2.94,3.54,3,6.64.29,13.3.14,19.8.14,5.73-16.78,8.84-19.65,18.63-17.49,5.66,1.25,9.18,6.85,9.95,15.81.19.45.28.94.28,1.45,6.69.09,13.39.51,20.06.04,1.71-.12,4.28-2.72,4.76-4.8,1.62-7.03,4.65-11.65,10.51-12.53,8.27-1.24,11.59,1,15.28,9.72l.06.42-.32.08c.85,2.4,1.71,4.8,2.56,7.2.37.15.75.28,1.12.43,5.86-.1,11.75.16,17.57-.52,1.77-.21,3.53-2.79,4.97-4.69,3.02-4.02,5.23-10.34,8.84-11.98,5.33-2.43,11.68-1.97,15.58,5.61,2.01,3.86,4.01,7.71,6.01,11.58h19.8c6.65-19.94,16.45-24.08,26.2-11.55,3.32,3.15.75,12.97,8.16,11.48h18.17c1.87-8.43,3.83-16.48,11.44-17.8,5.96-1.03,11.69-.14,14.85,7.86,1,2.74,2.01,5.49,3.1,8.44,1.71.35,3.51.71,5.32,1.07,5.1-.41,10.2-.82,15.29-1.23.12-8.61.23-17.22.35-25.83-.21-.92-.42-1.82-.63-2.74-1.68-.57-3.37-1.13-5.05-1.7-.46-.56-.93-1.1-1.39-1.65l.1.73-.58.13c-6.73-4.54-6.4-12.63-5.44-20.08.85-6.75,4.79-10.56,10.52-11.43,1.21-.19,2.97-3.4,3.04-5.29.29-8.15.04-16.32-.01-24.48-.39-.48-.79-.95-1.18-1.44-7.85-1.81-12.13-6.4-12.62-13.5-.91-13.31.77-16.09,14.18-22.95v-25.76c-.13-.52-.28-1.03-.41-1.54-.8-.72-1.6-1.44-2.4-2.15Zm-36.53,99.34c0,4.14-.85,8.27-1.3,12.41-.25.09-.49.18-.74.26-1.89.62-3.77,1.81-5.67,1.81-126.92.06-253.84.07-380.76.06-39.12,0-78.24,0-117.37,0-.32,0-.64,0-.97-.02-10.62,0-21.25,0-31.87,0-126.85.03-253.7.03-380.54,0-1.86,0-3.71-.22-6.2-.37v-9.81c0-190.47,0-380.93.01-571.39,0-2.9.25-5.8.37-8.69.07-.82.15-1.63.23-2.46,2.57-.77,5.14-2.21,7.71-2.21,126.27-.08,252.54-.09,378.81-.06,24.89,0,49.77.02,74.66.04,25.33-.02,50.65-.03,75.98-.04,125.83-.04,251.67-.02,377.5.06,2.58,0,5.15,1.44,7.72,2.2.09.82.17,1.63.25,2.45.28.63.56,1.26.84,1.89.46,2.62,1.33,5.24,1.33,7.86.07,188.66.07,377.33,0,566Z"/></clipPath></defs><g id="Layer_1-2"><g class="cls-16"><line class="cls-12" x1="-62.61" y1="1078.31" x2="122.4" y2="-506.62"/><line class="cls-12" x1="-62.61" y1="1078.31" x2="122.57" y2="-319.22"/><line class="cls-12" x1="-62.61" y1="1078.31" x2="122.57" y2="-103.47"/><line class="cls-10" x1="-62.61" y1="-506.62" x2="122.4" y2="1078.31"/><line class="cls-10" x1="-62.61" y1="-506.62" x2="122.57" y2="890.91"/><line class="cls-10" x1="-62.61" y1="-506.62" x2="122.57" y2="675.16"/><line class="cls-9" x1="-62.61" y1="-295.02" x2="122.4" y2="1087.99"/><line class="cls-9" x1="-62.61" y1="-295.02" x2="122.57" y2="924.47"/><line class="cls-9" x1="-62.61" y1="-295.02" x2="122.57" y2="736.2"/><line class="cls-18" x1="-62.61" y1="659.26" x2="122.4" y2="-32.25"/><line class="cls-18" x1="-62.61" y1="659.26" x2="122.57" y2="49.51"/><line class="cls-18" x1="-62.61" y1="659.26" x2="122.57" y2="143.65"/><line class="cls-11" x1="-62.61" y1="437.98" x2="122.4" y2="-253.53"/><line class="cls-11" x1="-62.61" y1="437.98" x2="122.57" y2="-171.77"/><line class="cls-11" x1="-62.61" y1="437.98" x2="122.57" y2="-77.64"/><line class="cls-8" x1="-62.61" y1="119.88" x2="122.4" y2="396.49"/><line class="cls-8" x1="-62.61" y1="119.88" x2="122.57" y2="363.78"/><line class="cls-8" x1="-62.61" y1="119.88" x2="122.57" y2="326.13"/><line class="cls-12" x1="-80.49" y1="-373.85" x2="104.52" y2="1211.08"/><line class="cls-12" x1="-80.49" y1="-373.85" x2="104.69" y2="1023.68"/><line class="cls-12" x1="-80.49" y1="-373.85" x2="104.69" y2="807.93"/><line class="cls-10" x1="-80.49" y1="1211.08" x2="104.52" y2="-373.85"/><line class="cls-10" x1="-80.49" y1="1211.08" x2="104.69" y2="-186.45"/><line class="cls-10" x1="-80.49" y1="1211.08" x2="104.69" y2="29.3"/><line class="cls-9" x1="-80.49" y1="999.48" x2="104.52" y2="-383.53"/><line class="cls-9" x1="-80.49" y1="999.48" x2="104.69" y2="-220.01"/><line class="cls-9" x1="-80.49" y1="999.48" x2="104.69" y2="-31.74"/><line class="cls-18" x1="-80.49" y1="45.2" x2="104.52" y2="736.7"/><line class="cls-18" x1="-80.49" y1="45.2" x2="104.69" y2="654.94"/><line class="cls-18" x1="-80.49" y1="45.2" x2="104.69" y2="560.81"/><line class="cls-11" x1="-80.49" y1="266.48" x2="104.52" y2="957.99"/><line class="cls-11" x1="-80.49" y1="266.48" x2="104.69" y2="876.22"/><line class="cls-11" x1="-80.49" y1="266.48" x2="104.69" y2="782.09"/><line class="cls-8" x1="-80.49" y1="584.57" x2="104.52" y2="307.97"/><line class="cls-8" x1="-80.49" y1="584.57" x2="104.69" y2="340.68"/><line class="cls-8" x1="-80.49" y1="584.57" x2="104.69" y2="378.33"/><line class="cls-12" x1="-48.85" y1="1363.21" x2="136.16" y2="-221.72"/><line class="cls-12" x1="-48.85" y1="1363.21" x2="136.33" y2="-34.32"/><line class="cls-12" x1="-48.85" y1="1363.21" x2="136.33" y2="181.43"/><line class="cls-10" x1="-48.85" y1="-221.72" x2="136.16" y2="1363.21"/><line class="cls-10" x1="-48.85" y1="-221.72" x2="136.33" y2="1175.81"/><line class="cls-10" x1="-48.85" y1="-221.72" x2="136.33" y2="960.06"/><line class="cls-9" x1="-48.85" y1="-10.12" x2="136.16" y2="1372.89"/><line class="cls-9" x1="-48.85" y1="-10.12" x2="136.33" y2="1209.36"/><line class="cls-9" x1="-48.85" y1="-10.12" x2="136.33" y2="1021.1"/><line class="cls-18" x1="-48.85" y1="944.16" x2="136.16" y2="252.65"/><line class="cls-18" x1="-48.85" y1="944.16" x2="136.33" y2="334.41"/><line class="cls-18" x1="-48.85" y1="944.16" x2="136.33" y2="428.55"/><line class="cls-11" x1="-48.85" y1="722.87" x2="136.16" y2="31.37"/><line class="cls-11" x1="-48.85" y1="722.87" x2="136.33" y2="113.13"/><line class="cls-11" x1="-48.85" y1="722.87" x2="136.33" y2="207.26"/><line class="cls-8" x1="-48.85" y1="404.78" x2="136.16" y2="681.38"/><line class="cls-8" x1="-48.85" y1="404.78" x2="136.33" y2="648.68"/><line class="cls-8" x1="-48.85" y1="404.78" x2="136.33" y2="611.03"/><line class="cls-12" x1="126.36" y1="1010.54" x2="-58.65" y2="-574.39"/><line class="cls-12" x1="126.36" y1="1010.54" x2="-58.82" y2="-386.99"/><line class="cls-12" x1="126.36" y1="1010.54" x2="-58.82" y2="-171.24"/><line class="cls-10" x1="126.36" y1="-574.39" x2="-58.65" y2="1010.54"/><line class="cls-10" x1="126.36" y1="-574.39" x2="-58.82" y2="823.14"/><line class="cls-10" x1="126.36" y1="-574.39" x2="-58.82" y2="607.39"/><line class="cls-9" x1="126.36" y1="-362.79" x2="-58.65" y2="1020.22"/><line class="cls-9" x1="126.36" y1="-362.79" x2="-58.82" y2="856.7"/><line class="cls-9" x1="126.36" y1="-362.79" x2="-58.82" y2="668.44"/><line class="cls-18" x1="126.36" y1="591.49" x2="-58.65" y2="-100.01"/><line class="cls-18" x1="126.36" y1="591.49" x2="-58.82" y2="-18.25"/><line class="cls-18" x1="126.36" y1="591.49" x2="-58.82" y2="75.88"/><line class="cls-11" x1="126.36" y1="370.21" x2="-58.65" y2="-321.3"/><line class="cls-11" x1="126.36" y1="370.21" x2="-58.82" y2="-239.53"/><line class="cls-11" x1="126.36" y1="370.21" x2="-58.82" y2="-145.4"/><line class="cls-8" x1="126.36" y1="52.12" x2="-58.65" y2="328.72"/><line class="cls-8" x1="126.36" y1="52.12" x2="-58.82" y2="296.01"/><line class="cls-8" x1="126.36" y1="52.12" x2="-58.82" y2="258.36"/><line class="cls-12" x1="901.22" y1="1078.31" x2="1086.23" y2="-506.62"/><line class="cls-12" x1="901.22" y1="1078.31" x2="1086.4" y2="-319.22"/><line class="cls-12" x1="901.22" y1="1078.31" x2="1086.4" y2="-103.47"/><line class="cls-10" x1="901.22" y1="-506.62" x2="1086.23" y2="1078.31"/><line class="cls-10" x1="901.22" y1="-506.62" x2="1086.4" y2="890.91"/><line class="cls-10" x1="901.22" y1="-506.62" x2="1086.4" y2="675.16"/><line class="cls-9" x1="901.22" y1="-295.02" x2="1086.23" y2="1087.99"/><line class="cls-9" x1="901.22" y1="-295.02" x2="1086.4" y2="924.47"/><line class="cls-9" x1="901.22" y1="-295.02" x2="1086.4" y2="736.2"/><line class="cls-18" x1="901.22" y1="659.26" x2="1086.23" y2="-32.25"/><line class="cls-18" x1="901.22" y1="659.26" x2="1086.4" y2="49.51"/><line class="cls-18" x1="901.22" y1="659.26" x2="1086.4" y2="143.65"/><line class="cls-11" x1="901.22" y1="437.98" x2="1086.23" y2="-253.53"/><line class="cls-11" x1="901.22" y1="437.98" x2="1086.4" y2="-171.77"/><line class="cls-11" x1="901.22" y1="437.98" x2="1086.4" y2="-77.64"/><line class="cls-8" x1="901.22" y1="119.88" x2="1086.23" y2="396.49"/><line class="cls-8" x1="901.22" y1="119.88" x2="1086.4" y2="363.78"/><line class="cls-8" x1="901.22" y1="119.88" x2="1086.4" y2="326.13"/><line class="cls-12" x1="883.34" y1="-373.85" x2="1068.35" y2="1211.08"/><line class="cls-12" x1="883.34" y1="-373.85" x2="1068.52" y2="1023.68"/><line class="cls-12" x1="883.34" y1="-373.85" x2="1068.52" y2="807.93"/><line class="cls-10" x1="883.34" y1="1211.08" x2="1068.35" y2="-373.85"/><line class="cls-10" x1="883.34" y1="1211.08" x2="1068.52" y2="-186.45"/><line class="cls-10" x1="883.34" y1="1211.08" x2="1068.52" y2="29.3"/><line class="cls-9" x1="883.34" y1="999.48" x2="1068.35" y2="-383.53"/><line class="cls-9" x1="883.34" y1="999.48" x2="1068.52" y2="-220.01"/><line class="cls-9" x1="883.34" y1="999.48" x2="1068.52" y2="-31.74"/><line class="cls-18" x1="883.34" y1="45.2" x2="1068.35" y2="736.7"/><line class="cls-18" x1="883.34" y1="45.2" x2="1068.52" y2="654.94"/><line class="cls-18" x1="883.34" y1="45.2" x2="1068.52" y2="560.81"/><line class="cls-11" x1="883.34" y1="266.48" x2="1068.35" y2="957.99"/><line class="cls-11" x1="883.34" y1="266.48" x2="1068.52" y2="876.22"/><line class="cls-11" x1="883.34" y1="266.48" x2="1068.52" y2="782.09"/><line class="cls-8" x1="883.34" y1="584.57" x2="1068.35" y2="307.97"/><line class="cls-8" x1="883.34" y1="584.57" x2="1068.52" y2="340.68"/><line class="cls-8" x1="883.34" y1="584.57" x2="1068.52" y2="378.33"/><line class="cls-12" x1="914.98" y1="1363.21" x2="1099.98" y2="-221.72"/><line class="cls-12" x1="914.98" y1="1363.21" x2="1100.16" y2="-34.32"/><line class="cls-12" x1="914.98" y1="1363.21" x2="1100.16" y2="181.43"/><line class="cls-10" x1="914.98" y1="-221.72" x2="1099.98" y2="1363.21"/><line class="cls-10" x1="914.98" y1="-221.72" x2="1100.16" y2="1175.81"/><line class="cls-10" x1="914.98" y1="-221.72" x2="1100.16" y2="960.06"/><line class="cls-9" x1="914.98" y1="-10.12" x2="1099.98" y2="1372.89"/><line class="cls-9" x1="914.98" y1="-10.12" x2="1100.16" y2="1209.36"/><line class="cls-9" x1="914.98" y1="-10.12" x2="1100.16" y2="1021.1"/><line class="cls-18" x1="914.98" y1="944.16" x2="1099.98" y2="252.65"/><line class="cls-18" x1="914.98" y1="944.16" x2="1100.16" y2="334.41"/><line class="cls-18" x1="914.98" y1="944.16" x2="1100.16" y2="428.55"/><line class="cls-11" x1="914.98" y1="722.87" x2="1099.98" y2="31.37"/><line class="cls-11" x1="914.98" y1="722.87" x2="1100.16" y2="113.13"/><line class="cls-11" x1="914.98" y1="722.87" x2="1100.16" y2="207.26"/><line class="cls-8" x1="914.98" y1="404.78" x2="1099.98" y2="681.38"/><line class="cls-8" x1="914.98" y1="404.78" x2="1100.16" y2="648.68"/><line class="cls-8" x1="914.98" y1="404.78" x2="1100.16" y2="611.03"/><line class="cls-12" x1="1090.18" y1="1010.54" x2="905.18" y2="-574.39"/><line class="cls-12" x1="1090.18" y1="1010.54" x2="905" y2="-386.99"/><line class="cls-12" x1="1090.18" y1="1010.54" x2="905" y2="-171.24"/><line class="cls-10" x1="1090.18" y1="-574.39" x2="905.18" y2="1010.54"/><line class="cls-10" x1="1090.18" y1="-574.39" x2="905" y2="823.14"/><line class="cls-10" x1="1090.18" y1="-574.39" x2="905" y2="607.39"/><line class="cls-9" x1="1090.18" y1="-362.79" x2="905.18" y2="1020.22"/><line class="cls-9" x1="1090.18" y1="-362.79" x2="905" y2="856.7"/><line class="cls-9" x1="1090.18" y1="-362.79" x2="905" y2="668.44"/><line class="cls-18" x1="1090.18" y1="591.49" x2="905.18" y2="-100.01"/><line class="cls-18" x1="1090.18" y1="591.49" x2="905" y2="-18.25"/><line class="cls-18" x1="1090.18" y1="591.49" x2="905" y2="75.88"/><line class="cls-11" x1="1090.18" y1="370.21" x2="905.18" y2="-321.3"/><line class="cls-11" x1="1090.18" y1="370.21" x2="905" y2="-239.53"/><line class="cls-11" x1="1090.18" y1="370.21" x2="905" y2="-145.4"/><line class="cls-8" x1="1090.18" y1="52.12" x2="905.18" y2="328.72"/><line class="cls-8" x1="1090.18" y1="52.12" x2="905" y2="296.01"/><line class="cls-8" x1="1090.18" y1="52.12" x2="905" y2="258.36"/><line class="cls-13" x1="1480.68" y1="126.88" x2="-623.04" y2="-106.59"/><line class="cls-13" x1="1480.68" y1="126.88" x2="-374.3" y2="-106.81"/><line class="cls-13" x1="1480.68" y1="126.88" x2="-87.93" y2="-106.81"/><line class="cls-15" x1="-623.04" y1="126.88" x2="1480.68" y2="-106.59"/><line class="cls-15" x1="-623.04" y1="126.88" x2="1231.94" y2="-106.81"/><line class="cls-15" x1="-623.04" y1="126.88" x2="945.57" y2="-106.81"/><line class="cls-4" x1="-342.17" y1="126.88" x2="1493.53" y2="-106.59"/><line class="cls-4" x1="-342.17" y1="126.88" x2="1276.48" y2="-106.81"/><line class="cls-4" x1="-342.17" y1="126.88" x2="1026.6" y2="-106.81"/><line class="cls-18" x1="924.46" y1="126.88" x2="6.61" y2="-106.59"/><line class="cls-18" x1="924.46" y1="126.88" x2="115.13" y2="-106.81"/><line class="cls-18" x1="924.46" y1="126.88" x2="240.08" y2="-106.81"/><line class="cls-14" x1="630.75" y1="126.88" x2="-287.1" y2="-106.59"/><line class="cls-14" x1="630.75" y1="126.88" x2="-178.58" y2="-106.81"/><line class="cls-14" x1="630.75" y1="126.88" x2="-53.63" y2="-106.81"/><line class="cls-3" x1="208.54" y1="126.88" x2="575.68" y2="-106.59"/><line class="cls-3" x1="208.54" y1="126.88" x2="532.27" y2="-106.81"/><line class="cls-3" x1="208.54" y1="126.88" x2="482.29" y2="-106.81"/><line class="cls-13" x1="-446.81" y1="149.44" x2="1656.91" y2="-84.02"/><line class="cls-13" x1="-446.81" y1="149.44" x2="1408.17" y2="-84.24"/><line class="cls-13" x1="-446.81" y1="149.44" x2="1121.8" y2="-84.24"/><line class="cls-15" x1="1656.91" y1="149.44" x2="-446.81" y2="-84.02"/><line class="cls-15" x1="1656.91" y1="149.44" x2="-198.07" y2="-84.24"/><line class="cls-15" x1="1656.91" y1="149.44" x2="88.3" y2="-84.24"/><line class="cls-4" x1="1376.05" y1="149.44" x2="-459.66" y2="-84.02"/><line class="cls-4" x1="1376.05" y1="149.44" x2="-242.61" y2="-84.24"/><line class="cls-4" x1="1376.05" y1="149.44" x2="7.28" y2="-84.24"/><line class="cls-18" x1="109.41" y1="149.44" x2="1027.26" y2="-84.02"/><line class="cls-18" x1="109.41" y1="149.44" x2="918.74" y2="-84.24"/><line class="cls-18" x1="109.41" y1="149.44" x2="793.8" y2="-84.24"/><line class="cls-14" x1="403.12" y1="149.44" x2="1320.98" y2="-84.02"/><line class="cls-14" x1="403.12" y1="149.44" x2="1212.45" y2="-84.24"/><line class="cls-14" x1="403.12" y1="149.44" x2="1087.51" y2="-84.24"/><line class="cls-3" x1="825.34" y1="149.44" x2="458.19" y2="-84.02"/><line class="cls-3" x1="825.34" y1="149.44" x2="501.6" y2="-84.24"/><line class="cls-3" x1="825.34" y1="149.44" x2="551.58" y2="-84.24"/><line class="cls-13" x1="1858.84" y1="109.52" x2="-244.88" y2="-123.95"/><line class="cls-13" x1="1858.84" y1="109.52" x2="3.86" y2="-124.16"/><line class="cls-13" x1="1858.84" y1="109.52" x2="290.23" y2="-124.16"/><line class="cls-15" x1="-244.88" y1="109.52" x2="1858.84" y2="-123.95"/><line class="cls-15" x1="-244.88" y1="109.52" x2="1610.1" y2="-124.16"/><line class="cls-15" x1="-244.88" y1="109.52" x2="1323.73" y2="-124.16"/><line class="cls-4" x1="35.98" y1="109.52" x2="1871.69" y2="-123.95"/><line class="cls-4" x1="35.98" y1="109.52" x2="1654.64" y2="-124.16"/><line class="cls-4" x1="35.98" y1="109.52" x2="1404.75" y2="-124.16"/><line class="cls-18" x1="1302.62" y1="109.52" x2="384.77" y2="-123.95"/><line class="cls-18" x1="1302.62" y1="109.52" x2="493.29" y2="-124.16"/><line class="cls-18" x1="1302.62" y1="109.52" x2="618.23" y2="-124.16"/><line class="cls-14" x1="1008.91" y1="109.52" x2="91.05" y2="-123.95"/><line class="cls-14" x1="1008.91" y1="109.52" x2="199.58" y2="-124.16"/><line class="cls-14" x1="1008.91" y1="109.52" x2="324.52" y2="-124.16"/><line class="cls-3" x1="586.69" y1="109.52" x2="953.84" y2="-123.95"/><line class="cls-3" x1="586.69" y1="109.52" x2="910.43" y2="-124.16"/><line class="cls-3" x1="586.69" y1="109.52" x2="860.45" y2="-124.16"/><line class="cls-13" x1="1390.73" y1="-111.58" x2="-712.99" y2="121.89"/><line class="cls-13" x1="1390.73" y1="-111.58" x2="-464.25" y2="122.11"/><line class="cls-13" x1="1390.73" y1="-111.58" x2="-177.88" y2="122.11"/><line class="cls-15" x1="-712.99" y1="-111.58" x2="1390.73" y2="121.89"/><line class="cls-15" x1="-712.99" y1="-111.58" x2="1141.99" y2="122.11"/><line class="cls-15" x1="-712.99" y1="-111.58" x2="855.62" y2="122.11"/><line class="cls-4" x1="-432.12" y1="-111.58" x2="1403.58" y2="121.89"/><line class="cls-4" x1="-432.12" y1="-111.58" x2="1186.53" y2="122.11"/><line class="cls-4" x1="-432.12" y1="-111.58" x2="936.65" y2="122.11"/><line class="cls-18" x1="834.51" y1="-111.58" x2="-83.34" y2="121.89"/><line class="cls-18" x1="834.51" y1="-111.58" x2="25.19" y2="122.11"/><line class="cls-18" x1="834.51" y1="-111.58" x2="150.13" y2="122.11"/><line class="cls-14" x1="540.8" y1="-111.58" x2="-377.05" y2="121.89"/><line class="cls-14" x1="540.8" y1="-111.58" x2="-268.53" y2="122.11"/><line class="cls-14" x1="540.8" y1="-111.58" x2="-143.58" y2="122.11"/><line class="cls-3" x1="118.59" y1="-111.58" x2="485.73" y2="121.89"/><line class="cls-3" x1="118.59" y1="-111.58" x2="442.32" y2="122.11"/><line class="cls-3" x1="118.59" y1="-111.58" x2="392.34" y2="122.11"/><line class="cls-5" x1="1591.33" y1="755.41" x2="-685.08" y2="558.26"/><line class="cls-5" x1="1591.33" y1="755.41" x2="-415.92" y2="558.07"/><line class="cls-5" x1="1591.33" y1="755.41" x2="-106.05" y2="558.07"/><line class="cls-6" x1="-685.08" y1="755.41" x2="1591.33" y2="558.26"/><line class="cls-6" x1="-685.08" y1="755.41" x2="1322.18" y2="558.07"/><line class="cls-6" x1="-685.08" y1="755.41" x2="1012.3" y2="558.07"/><line class="cls-17" x1="-381.16" y1="755.41" x2="1605.24" y2="558.26"/><line class="cls-17" x1="-381.16" y1="755.41" x2="1370.37" y2="558.07"/><line class="cls-17" x1="-381.16" y1="755.41" x2="1099.97" y2="558.07"/><line class="cls-18" x1="989.45" y1="755.41" x2="-3.75" y2="558.26"/><line class="cls-18" x1="989.45" y1="755.41" x2="113.69" y2="558.07"/><line class="cls-18" x1="989.45" y1="755.41" x2="248.89" y2="558.07"/><line class="cls-7" x1="671.63" y1="755.41" x2="-321.57" y2="558.26"/><line class="cls-7" x1="671.63" y1="755.41" x2="-204.14" y2="558.07"/><line class="cls-7" x1="671.63" y1="755.41" x2="-68.94" y2="558.07"/><line class="cls-2" x1="214.76" y1="755.41" x2="612.04" y2="558.26"/><line class="cls-2" x1="214.76" y1="755.41" x2="565.06" y2="558.07"/><line class="cls-2" x1="214.76" y1="755.41" x2="510.98" y2="558.07"/><line class="cls-5" x1="-494.39" y1="774.46" x2="1782.03" y2="577.31"/><line class="cls-5" x1="-494.39" y1="774.46" x2="1512.87" y2="577.13"/><line class="cls-5" x1="-494.39" y1="774.46" x2="1202.99" y2="577.13"/><line class="cls-6" x1="1782.03" y1="774.46" x2="-494.39" y2="577.31"/><line class="cls-6" x1="1782.03" y1="774.46" x2="-225.23" y2="577.13"/><line class="cls-6" x1="1782.03" y1="774.46" x2="84.65" y2="577.13"/><line class="cls-17" x1="1478.11" y1="774.46" x2="-508.29" y2="577.31"/><line class="cls-17" x1="1478.11" y1="774.46" x2="-273.43" y2="577.13"/><line class="cls-17" x1="1478.11" y1="774.46" x2="-3.03" y2="577.13"/><line class="cls-18" x1="107.49" y1="774.46" x2="1100.69" y2="577.31"/><line class="cls-18" x1="107.49" y1="774.46" x2="983.26" y2="577.13"/><line class="cls-18" x1="107.49" y1="774.46" x2="848.06" y2="577.13"/><line class="cls-7" x1="425.32" y1="774.46" x2="1418.52" y2="577.31"/><line class="cls-7" x1="425.32" y1="774.46" x2="1301.08" y2="577.13"/><line class="cls-7" x1="425.32" y1="774.46" x2="1165.88" y2="577.13"/><line class="cls-2" x1="882.19" y1="774.46" x2="484.91" y2="577.31"/><line class="cls-2" x1="882.19" y1="774.46" x2="531.88" y2="577.13"/><line class="cls-2" x1="882.19" y1="774.46" x2="585.96" y2="577.13"/><line class="cls-5" x1="2000.53" y1="740.75" x2="-275.88" y2="543.6"/><line class="cls-5" x1="2000.53" y1="740.75" x2="-6.73" y2="543.42"/><line class="cls-5" x1="2000.53" y1="740.75" x2="303.15" y2="543.42"/><line class="cls-6" x1="-275.88" y1="740.75" x2="2000.53" y2="543.6"/><line class="cls-6" x1="-275.88" y1="740.75" x2="1731.37" y2="543.42"/><line class="cls-6" x1="-275.88" y1="740.75" x2="1421.5" y2="543.42"/><line class="cls-17" x1="28.04" y1="740.75" x2="2014.44" y2="543.6"/><line class="cls-17" x1="28.04" y1="740.75" x2="1779.57" y2="543.42"/><line class="cls-17" x1="28.04" y1="740.75" x2="1509.17" y2="543.42"/><line class="cls-18" x1="1398.65" y1="740.75" x2="405.45" y2="543.6"/><line class="cls-18" x1="1398.65" y1="740.75" x2="522.89" y2="543.42"/><line class="cls-18" x1="1398.65" y1="740.75" x2="658.09" y2="543.42"/><line class="cls-7" x1="1080.83" y1="740.75" x2="87.63" y2="543.6"/><line class="cls-7" x1="1080.83" y1="740.75" x2="205.06" y2="543.42"/><line class="cls-7" x1="1080.83" y1="740.75" x2="340.26" y2="543.42"/><line class="cls-2" x1="623.96" y1="740.75" x2="1021.24" y2="543.6"/><line class="cls-2" x1="623.96" y1="740.75" x2="974.26" y2="543.42"/><line class="cls-2" x1="623.96" y1="740.75" x2="920.18" y2="543.42"/><line class="cls-5" x1="1494" y1="554.04" x2="-782.41" y2="751.19"/><line class="cls-5" x1="1494" y1="554.04" x2="-513.26" y2="751.38"/><line class="cls-5" x1="1494" y1="554.04" x2="-203.38" y2="751.38"/><line class="cls-6" x1="-782.41" y1="554.04" x2="1494" y2="751.19"/><line class="cls-6" x1="-782.41" y1="554.04" x2="1224.84" y2="751.38"/><line class="cls-6" x1="-782.41" y1="554.04" x2="914.96" y2="751.38"/><line class="cls-17" x1="-478.5" y1="554.04" x2="1507.9" y2="751.19"/><line class="cls-17" x1="-478.5" y1="554.04" x2="1273.04" y2="751.38"/><line class="cls-17" x1="-478.5" y1="554.04" x2="1002.64" y2="751.38"/><line class="cls-18" x1="892.12" y1="554.04" x2="-101.08" y2="751.19"/><line class="cls-18" x1="892.12" y1="554.04" x2="16.35" y2="751.38"/><line class="cls-18" x1="892.12" y1="554.04" x2="151.55" y2="751.38"/><line class="cls-7" x1="574.3" y1="554.04" x2="-418.9" y2="751.19"/><line class="cls-7" x1="574.3" y1="554.04" x2="-301.47" y2="751.38"/><line class="cls-7" x1="574.3" y1="554.04" x2="-166.27" y2="751.38"/><line class="cls-2" x1="117.42" y1="554.04" x2="514.7" y2="751.19"/><line class="cls-2" x1="117.42" y1="554.04" x2="467.73" y2="751.38"/><line class="cls-2" x1="117.42" y1="554.04" x2="413.65" y2="751.38"/><line class="cls-12" x1="-115.03" y1="1068.86" x2="69.98" y2="-516.07"/><line class="cls-12" x1="-115.03" y1="1068.86" x2="70.15" y2="-328.67"/><line class="cls-12" x1="-115.03" y1="1068.86" x2="70.15" y2="-112.92"/><line class="cls-10" x1="-115.03" y1="-516.07" x2="69.98" y2="1068.86"/><line class="cls-10" x1="-115.03" y1="-516.07" x2="70.15" y2="881.46"/><line class="cls-10" x1="-115.03" y1="-516.07" x2="70.15" y2="665.71"/><line class="cls-9" x1="-115.03" y1="-304.47" x2="69.98" y2="1078.54"/><line class="cls-9" x1="-115.03" y1="-304.47" x2="70.15" y2="915.01"/><line class="cls-9" x1="-115.03" y1="-304.47" x2="70.15" y2="726.75"/><line class="cls-18" x1="-115.03" y1="649.81" x2="69.98" y2="-41.7"/><line class="cls-18" x1="-115.03" y1="649.81" x2="70.15" y2="40.06"/><line class="cls-18" x1="-115.03" y1="649.81" x2="70.15" y2="134.2"/><line class="cls-11" x1="-115.03" y1="428.52" x2="69.98" y2="-262.98"/><line class="cls-11" x1="-115.03" y1="428.52" x2="70.15" y2="-181.22"/><line class="cls-11" x1="-115.03" y1="428.52" x2="70.15" y2="-87.09"/><line class="cls-8" x1="-115.03" y1="110.43" x2="69.98" y2="387.03"/><line class="cls-8" x1="-115.03" y1="110.43" x2="70.15" y2="354.33"/><line class="cls-8" x1="-115.03" y1="110.43" x2="70.15" y2="316.68"/><line class="cls-12" x1="-132.91" y1="-383.3" x2="52.1" y2="1201.63"/><line class="cls-12" x1="-132.91" y1="-383.3" x2="52.27" y2="1014.23"/><line class="cls-12" x1="-132.91" y1="-383.3" x2="52.27" y2="798.48"/><line class="cls-10" x1="-132.91" y1="1201.63" x2="52.1" y2="-383.3"/><line class="cls-10" x1="-132.91" y1="1201.63" x2="52.27" y2="-195.9"/><line class="cls-10" x1="-132.91" y1="1201.63" x2="52.27" y2="19.85"/><line class="cls-9" x1="-132.91" y1="990.03" x2="52.1" y2="-392.98"/><line class="cls-9" x1="-132.91" y1="990.03" x2="52.27" y2="-229.46"/><line class="cls-9" x1="-132.91" y1="990.03" x2="52.27" y2="-41.2"/><line class="cls-18" x1="-132.91" y1="35.75" x2="52.1" y2="727.25"/><line class="cls-18" x1="-132.91" y1="35.75" x2="52.27" y2="645.49"/><line class="cls-18" x1="-132.91" y1="35.75" x2="52.27" y2="551.36"/><line class="cls-11" x1="-132.91" y1="257.03" x2="52.1" y2="948.54"/><line class="cls-11" x1="-132.91" y1="257.03" x2="52.27" y2="866.77"/><line class="cls-11" x1="-132.91" y1="257.03" x2="52.27" y2="772.64"/><line class="cls-8" x1="-132.91" y1="575.12" x2="52.1" y2="298.52"/><line class="cls-8" x1="-132.91" y1="575.12" x2="52.27" y2="331.23"/><line class="cls-8" x1="-132.91" y1="575.12" x2="52.27" y2="368.88"/><line class="cls-12" x1="-101.27" y1="1353.76" x2="83.73" y2="-231.17"/><line class="cls-12" x1="-101.27" y1="1353.76" x2="83.91" y2="-43.77"/><line class="cls-12" x1="-101.27" y1="1353.76" x2="83.91" y2="171.98"/><line class="cls-10" x1="-101.27" y1="-231.17" x2="83.73" y2="1353.76"/><line class="cls-10" x1="-101.27" y1="-231.17" x2="83.91" y2="1166.36"/><line class="cls-10" x1="-101.27" y1="-231.17" x2="83.91" y2="950.61"/><line class="cls-9" x1="-101.27" y1="-19.57" x2="83.73" y2="1363.44"/><line class="cls-9" x1="-101.27" y1="-19.57" x2="83.91" y2="1199.91"/><line class="cls-9" x1="-101.27" y1="-19.57" x2="83.91" y2="1011.65"/><line class="cls-18" x1="-101.27" y1="934.71" x2="83.73" y2="243.2"/><line class="cls-18" x1="-101.27" y1="934.71" x2="83.91" y2="324.96"/><line class="cls-18" x1="-101.27" y1="934.71" x2="83.91" y2="419.09"/><line class="cls-11" x1="-101.27" y1="713.42" x2="83.73" y2="21.92"/><line class="cls-11" x1="-101.27" y1="713.42" x2="83.91" y2="103.68"/><line class="cls-11" x1="-101.27" y1="713.42" x2="83.91" y2="197.81"/><line class="cls-8" x1="-101.27" y1="395.33" x2="83.73" y2="671.93"/><line class="cls-8" x1="-101.27" y1="395.33" x2="83.91" y2="639.23"/><line class="cls-8" x1="-101.27" y1="395.33" x2="83.91" y2="601.58"/><line class="cls-12" x1="73.93" y1="1001.09" x2="-111.08" y2="-583.84"/><line class="cls-12" x1="73.93" y1="1001.09" x2="-111.25" y2="-396.44"/><line class="cls-12" x1="73.93" y1="1001.09" x2="-111.25" y2="-180.69"/><line class="cls-10" x1="73.93" y1="-583.84" x2="-111.08" y2="1001.09"/><line class="cls-10" x1="73.93" y1="-583.84" x2="-111.25" y2="813.69"/><line class="cls-10" x1="73.93" y1="-583.84" x2="-111.25" y2="597.94"/><line class="cls-9" x1="73.93" y1="-372.24" x2="-111.08" y2="1010.77"/><line class="cls-9" x1="73.93" y1="-372.24" x2="-111.25" y2="847.25"/><line class="cls-9" x1="73.93" y1="-372.24" x2="-111.25" y2="658.98"/><line class="cls-18" x1="73.93" y1="582.04" x2="-111.08" y2="-109.46"/><line class="cls-18" x1="73.93" y1="582.04" x2="-111.25" y2="-27.7"/><line class="cls-18" x1="73.93" y1="582.04" x2="-111.25" y2="66.43"/><line class="cls-11" x1="73.93" y1="360.76" x2="-111.08" y2="-330.75"/><line class="cls-11" x1="73.93" y1="360.76" x2="-111.25" y2="-248.98"/><line class="cls-11" x1="73.93" y1="360.76" x2="-111.25" y2="-154.85"/><line class="cls-8" x1="73.93" y1="42.67" x2="-111.08" y2="319.27"/><line class="cls-8" x1="73.93" y1="42.67" x2="-111.25" y2="286.56"/><line class="cls-8" x1="73.93" y1="42.67" x2="-111.25" y2="248.91"/><line class="cls-12" x1="848.8" y1="1068.86" x2="1033.81" y2="-516.07"/><line class="cls-12" x1="848.8" y1="1068.86" x2="1033.98" y2="-328.67"/><line class="cls-12" x1="848.8" y1="1068.86" x2="1033.98" y2="-112.92"/><line class="cls-10" x1="848.8" y1="-516.07" x2="1033.81" y2="1068.86"/><line class="cls-10" x1="848.8" y1="-516.07" x2="1033.98" y2="881.46"/><line class="cls-10" x1="848.8" y1="-516.07" x2="1033.98" y2="665.71"/><line class="cls-9" x1="848.8" y1="-304.47" x2="1033.81" y2="1078.54"/><line class="cls-9" x1="848.8" y1="-304.47" x2="1033.98" y2="915.01"/><line class="cls-9" x1="848.8" y1="-304.47" x2="1033.98" y2="726.75"/><line class="cls-18" x1="848.8" y1="649.81" x2="1033.81" y2="-41.7"/><line class="cls-18" x1="848.8" y1="649.81" x2="1033.98" y2="40.06"/><line class="cls-18" x1="848.8" y1="649.81" x2="1033.98" y2="134.2"/><line class="cls-11" x1="848.8" y1="428.52" x2="1033.81" y2="-262.98"/><line class="cls-11" x1="848.8" y1="428.52" x2="1033.98" y2="-181.22"/><line class="cls-11" x1="848.8" y1="428.52" x2="1033.98" y2="-87.09"/><line class="cls-8" x1="848.8" y1="110.43" x2="1033.81" y2="387.03"/><line class="cls-8" x1="848.8" y1="110.43" x2="1033.98" y2="354.33"/><line class="cls-8" x1="848.8" y1="110.43" x2="1033.98" y2="316.68"/><line class="cls-12" x1="830.92" y1="-383.3" x2="1015.92" y2="1201.63"/><line class="cls-12" x1="830.92" y1="-383.3" x2="1016.1" y2="1014.23"/><line class="cls-12" x1="830.92" y1="-383.3" x2="1016.1" y2="798.48"/><line class="cls-10" x1="830.92" y1="1201.63" x2="1015.92" y2="-383.3"/><line class="cls-10" x1="830.92" y1="1201.63" x2="1016.1" y2="-195.9"/><line class="cls-10" x1="830.92" y1="1201.63" x2="1016.1" y2="19.85"/><line class="cls-9" x1="830.92" y1="990.03" x2="1015.92" y2="-392.98"/><line class="cls-9" x1="830.92" y1="990.03" x2="1016.1" y2="-229.46"/><line class="cls-9" x1="830.92" y1="990.03" x2="1016.1" y2="-41.2"/><line class="cls-18" x1="830.92" y1="35.75" x2="1015.92" y2="727.25"/><line class="cls-18" x1="830.92" y1="35.75" x2="1016.1" y2="645.49"/><line class="cls-18" x1="830.92" y1="35.75" x2="1016.1" y2="551.36"/><line class="cls-11" x1="830.92" y1="257.03" x2="1015.92" y2="948.54"/><line class="cls-11" x1="830.92" y1="257.03" x2="1016.1" y2="866.77"/><line class="cls-11" x1="830.92" y1="257.03" x2="1016.1" y2="772.64"/><line class="cls-8" x1="830.92" y1="575.12" x2="1015.92" y2="298.52"/><line class="cls-8" x1="830.92" y1="575.12" x2="1016.1" y2="331.23"/><line class="cls-8" x1="830.92" y1="575.12" x2="1016.1" y2="368.88"/><line class="cls-12" x1="862.55" y1="1353.76" x2="1047.56" y2="-231.17"/><line class="cls-12" x1="862.55" y1="1353.76" x2="1047.73" y2="-43.77"/><line class="cls-12" x1="862.55" y1="1353.76" x2="1047.73" y2="171.98"/><line class="cls-10" x1="862.55" y1="-231.17" x2="1047.56" y2="1353.76"/><line class="cls-10" x1="862.55" y1="-231.17" x2="1047.73" y2="1166.36"/><line class="cls-10" x1="862.55" y1="-231.17" x2="1047.73" y2="950.61"/><line class="cls-9" x1="862.55" y1="-19.57" x2="1047.56" y2="1363.44"/><line class="cls-9" x1="862.55" y1="-19.57" x2="1047.73" y2="1199.91"/><line class="cls-9" x1="862.55" y1="-19.57" x2="1047.73" y2="1011.65"/><line class="cls-18" x1="862.55" y1="934.71" x2="1047.56" y2="243.2"/><line class="cls-18" x1="862.55" y1="934.71" x2="1047.73" y2="324.96"/><line class="cls-18" x1="862.55" y1="934.71" x2="1047.73" y2="419.09"/><line class="cls-11" x1="862.55" y1="713.42" x2="1047.56" y2="21.92"/><line class="cls-11" x1="862.55" y1="713.42" x2="1047.73" y2="103.68"/><line class="cls-11" x1="862.55" y1="713.42" x2="1047.73" y2="197.81"/><line class="cls-8" x1="862.55" y1="395.33" x2="1047.56" y2="671.93"/><line class="cls-8" x1="862.55" y1="395.33" x2="1047.73" y2="639.23"/><line class="cls-8" x1="862.55" y1="395.33" x2="1047.73" y2="601.58"/><line class="cls-12" x1="1037.76" y1="1001.09" x2="852.75" y2="-583.84"/><line class="cls-12" x1="1037.76" y1="1001.09" x2="852.58" y2="-396.44"/><line class="cls-12" x1="1037.76" y1="1001.09" x2="852.58" y2="-180.69"/><line class="cls-10" x1="1037.76" y1="-583.84" x2="852.75" y2="1001.09"/><line class="cls-10" x1="1037.76" y1="-583.84" x2="852.58" y2="813.69"/><line class="cls-10" x1="1037.76" y1="-583.84" x2="852.58" y2="597.94"/><line class="cls-9" x1="1037.76" y1="-372.24" x2="852.75" y2="1010.77"/><line class="cls-9" x1="1037.76" y1="-372.24" x2="852.58" y2="847.25"/><line class="cls-9" x1="1037.76" y1="-372.24" x2="852.58" y2="658.98"/><line class="cls-18" x1="1037.76" y1="582.04" x2="852.75" y2="-109.46"/><line class="cls-18" x1="1037.76" y1="582.04" x2="852.58" y2="-27.7"/><line class="cls-18" x1="1037.76" y1="582.04" x2="852.58" y2="66.43"/><line class="cls-11" x1="1037.76" y1="360.76" x2="852.75" y2="-330.75"/><line class="cls-11" x1="1037.76" y1="360.76" x2="852.58" y2="-248.98"/><line class="cls-11" x1="1037.76" y1="360.76" x2="852.58" y2="-154.85"/><line class="cls-8" x1="1037.76" y1="42.67" x2="852.75" y2="319.27"/><line class="cls-8" x1="1037.76" y1="42.67" x2="852.58" y2="286.56"/><line class="cls-8" x1="1037.76" y1="42.67" x2="852.58" y2="248.91"/><line class="cls-13" x1="1428.26" y1="117.43" x2="-675.46" y2="-116.04"/><line class="cls-13" x1="1428.26" y1="117.43" x2="-426.72" y2="-116.26"/><line class="cls-13" x1="1428.26" y1="117.43" x2="-140.35" y2="-116.26"/><line class="cls-15" x1="-675.46" y1="117.43" x2="1428.26" y2="-116.04"/><line class="cls-15" x1="-675.46" y1="117.43" x2="1179.52" y2="-116.26"/><line class="cls-15" x1="-675.46" y1="117.43" x2="893.15" y2="-116.26"/><line class="cls-4" x1="-394.6" y1="117.43" x2="1441.11" y2="-116.04"/><line class="cls-4" x1="-394.6" y1="117.43" x2="1224.06" y2="-116.26"/><line class="cls-4" x1="-394.6" y1="117.43" x2="974.17" y2="-116.26"/><line class="cls-18" x1="872.04" y1="117.43" x2="-45.81" y2="-116.04"/><line class="cls-18" x1="872.04" y1="117.43" x2="62.71" y2="-116.26"/><line class="cls-18" x1="872.04" y1="117.43" x2="187.66" y2="-116.26"/><line class="cls-14" x1="578.33" y1="117.43" x2="-339.53" y2="-116.04"/><line class="cls-14" x1="578.33" y1="117.43" x2="-231" y2="-116.26"/><line class="cls-14" x1="578.33" y1="117.43" x2="-106.06" y2="-116.26"/><line class="cls-3" x1="156.12" y1="117.43" x2="523.26" y2="-116.04"/><line class="cls-3" x1="156.12" y1="117.43" x2="479.85" y2="-116.26"/><line class="cls-3" x1="156.12" y1="117.43" x2="429.87" y2="-116.26"/><line class="cls-13" x1="-499.23" y1="139.99" x2="1604.49" y2="-93.47"/><line class="cls-13" x1="-499.23" y1="139.99" x2="1355.75" y2="-93.69"/><line class="cls-13" x1="-499.23" y1="139.99" x2="1069.38" y2="-93.69"/><line class="cls-15" x1="1604.49" y1="139.99" x2="-499.23" y2="-93.47"/><line class="cls-15" x1="1604.49" y1="139.99" x2="-250.49" y2="-93.69"/><line class="cls-15" x1="1604.49" y1="139.99" x2="35.88" y2="-93.69"/><line class="cls-4" x1="1323.62" y1="139.99" x2="-512.08" y2="-93.47"/><line class="cls-4" x1="1323.62" y1="139.99" x2="-295.03" y2="-93.69"/><line class="cls-4" x1="1323.62" y1="139.99" x2="-45.15" y2="-93.69"/><line class="cls-18" x1="56.99" y1="139.99" x2="974.84" y2="-93.47"/><line class="cls-18" x1="56.99" y1="139.99" x2="866.32" y2="-93.69"/><line class="cls-18" x1="56.99" y1="139.99" x2="741.37" y2="-93.69"/><line class="cls-14" x1="350.7" y1="139.99" x2="1268.55" y2="-93.47"/><line class="cls-14" x1="350.7" y1="139.99" x2="1160.03" y2="-93.69"/><line class="cls-14" x1="350.7" y1="139.99" x2="1035.09" y2="-93.69"/><line class="cls-3" x1="772.91" y1="139.99" x2="405.77" y2="-93.47"/><line class="cls-3" x1="772.91" y1="139.99" x2="449.18" y2="-93.69"/><line class="cls-3" x1="772.91" y1="139.99" x2="499.16" y2="-93.69"/><line class="cls-13" x1="1806.42" y1="100.07" x2="-297.3" y2="-133.4"/><line class="cls-13" x1="1806.42" y1="100.07" x2="-48.57" y2="-133.61"/><line class="cls-13" x1="1806.42" y1="100.07" x2="237.8" y2="-133.61"/><line class="cls-15" x1="-297.3" y1="100.07" x2="1806.42" y2="-133.4"/><line class="cls-15" x1="-297.3" y1="100.07" x2="1557.68" y2="-133.61"/><line class="cls-15" x1="-297.3" y1="100.07" x2="1271.31" y2="-133.61"/><line class="cls-4" x1="-16.44" y1="100.07" x2="1819.27" y2="-133.4"/><line class="cls-4" x1="-16.44" y1="100.07" x2="1602.22" y2="-133.61"/><line class="cls-4" x1="-16.44" y1="100.07" x2="1352.33" y2="-133.61"/><line class="cls-18" x1="1250.2" y1="100.07" x2="332.34" y2="-133.4"/><line class="cls-18" x1="1250.2" y1="100.07" x2="440.87" y2="-133.61"/><line class="cls-18" x1="1250.2" y1="100.07" x2="565.81" y2="-133.61"/><line class="cls-14" x1="956.48" y1="100.07" x2="38.63" y2="-133.4"/><line class="cls-14" x1="956.48" y1="100.07" x2="147.15" y2="-133.61"/><line class="cls-14" x1="956.48" y1="100.07" x2="272.1" y2="-133.61"/><line class="cls-3" x1="534.27" y1="100.07" x2="901.41" y2="-133.4"/><line class="cls-3" x1="534.27" y1="100.07" x2="858" y2="-133.61"/><line class="cls-3" x1="534.27" y1="100.07" x2="808.03" y2="-133.61"/><line class="cls-13" x1="1338.31" y1="-121.03" x2="-765.41" y2="112.44"/><line class="cls-13" x1="1338.31" y1="-121.03" x2="-516.67" y2="112.65"/><line class="cls-13" x1="1338.31" y1="-121.03" x2="-230.3" y2="112.65"/><line class="cls-15" x1="-765.41" y1="-121.03" x2="1338.31" y2="112.44"/><line class="cls-15" x1="-765.41" y1="-121.03" x2="1089.57" y2="112.65"/><line class="cls-15" x1="-765.41" y1="-121.03" x2="803.2" y2="112.65"/><line class="cls-4" x1="-484.55" y1="-121.03" x2="1351.16" y2="112.44"/><line class="cls-4" x1="-484.55" y1="-121.03" x2="1134.11" y2="112.65"/><line class="cls-4" x1="-484.55" y1="-121.03" x2="884.22" y2="112.65"/><line class="cls-18" x1="782.09" y1="-121.03" x2="-135.76" y2="112.44"/><line class="cls-18" x1="782.09" y1="-121.03" x2="-27.24" y2="112.65"/><line class="cls-18" x1="782.09" y1="-121.03" x2="97.71" y2="112.65"/><line class="cls-14" x1="488.38" y1="-121.03" x2="-429.48" y2="112.44"/><line class="cls-14" x1="488.38" y1="-121.03" x2="-320.95" y2="112.65"/><line class="cls-14" x1="488.38" y1="-121.03" x2="-196.01" y2="112.65"/><line class="cls-3" x1="66.17" y1="-121.03" x2="433.31" y2="112.44"/><line class="cls-3" x1="66.17" y1="-121.03" x2="389.9" y2="112.65"/><line class="cls-3" x1="66.17" y1="-121.03" x2="339.92" y2="112.65"/><line class="cls-5" x1="1538.91" y1="745.96" x2="-737.5" y2="548.81"/><line class="cls-5" x1="1538.91" y1="745.96" x2="-468.35" y2="548.62"/><line class="cls-5" x1="1538.91" y1="745.96" x2="-158.47" y2="548.62"/><line class="cls-6" x1="-737.5" y1="745.96" x2="1538.91" y2="548.81"/><line class="cls-6" x1="-737.5" y1="745.96" x2="1269.75" y2="548.62"/><line class="cls-6" x1="-737.5" y1="745.96" x2="959.87" y2="548.62"/><line class="cls-17" x1="-433.58" y1="745.96" x2="1552.81" y2="548.81"/><line class="cls-17" x1="-433.58" y1="745.96" x2="1317.95" y2="548.62"/><line class="cls-17" x1="-433.58" y1="745.96" x2="1047.55" y2="548.62"/><line class="cls-18" x1="937.03" y1="745.96" x2="-56.17" y2="548.81"/><line class="cls-18" x1="937.03" y1="745.96" x2="61.26" y2="548.62"/><line class="cls-18" x1="937.03" y1="745.96" x2="196.46" y2="548.62"/><line class="cls-7" x1="619.21" y1="745.96" x2="-373.99" y2="548.81"/><line class="cls-7" x1="619.21" y1="745.96" x2="-256.56" y2="548.62"/><line class="cls-7" x1="619.21" y1="745.96" x2="-121.36" y2="548.62"/><line class="cls-2" x1="162.33" y1="745.96" x2="559.61" y2="548.81"/><line class="cls-2" x1="162.33" y1="745.96" x2="512.64" y2="548.62"/><line class="cls-2" x1="162.33" y1="745.96" x2="458.56" y2="548.62"/><line class="cls-5" x1="-546.81" y1="765.01" x2="1729.6" y2="567.86"/><line class="cls-5" x1="-546.81" y1="765.01" x2="1460.45" y2="567.68"/><line class="cls-5" x1="-546.81" y1="765.01" x2="1150.57" y2="567.68"/><line class="cls-6" x1="1729.6" y1="765.01" x2="-546.81" y2="567.86"/><line class="cls-6" x1="1729.6" y1="765.01" x2="-277.65" y2="567.68"/><line class="cls-6" x1="1729.6" y1="765.01" x2="32.23" y2="567.68"/><line class="cls-17" x1="1425.68" y1="765.01" x2="-560.71" y2="567.86"/><line class="cls-17" x1="1425.68" y1="765.01" x2="-325.85" y2="567.68"/><line class="cls-17" x1="1425.68" y1="765.01" x2="-55.45" y2="567.68"/><line class="cls-18" x1="55.07" y1="765.01" x2="1048.27" y2="567.86"/><line class="cls-18" x1="55.07" y1="765.01" x2="930.84" y2="567.68"/><line class="cls-18" x1="55.07" y1="765.01" x2="795.64" y2="567.68"/><line class="cls-7" x1="372.89" y1="765.01" x2="1366.09" y2="567.86"/><line class="cls-7" x1="372.89" y1="765.01" x2="1248.66" y2="567.68"/><line class="cls-7" x1="372.89" y1="765.01" x2="1113.46" y2="567.68"/><line class="cls-2" x1="829.76" y1="765.01" x2="432.49" y2="567.86"/><line class="cls-2" x1="829.76" y1="765.01" x2="479.46" y2="567.68"/><line class="cls-2" x1="829.76" y1="765.01" x2="533.54" y2="567.68"/><line class="cls-5" x1="1948.11" y1="731.3" x2="-328.31" y2="534.15"/><line class="cls-5" x1="1948.11" y1="731.3" x2="-59.15" y2="533.97"/><line class="cls-5" x1="1948.11" y1="731.3" x2="250.73" y2="533.97"/><line class="cls-6" x1="-328.31" y1="731.3" x2="1948.11" y2="534.15"/><line class="cls-6" x1="-328.31" y1="731.3" x2="1678.95" y2="533.97"/><line class="cls-6" x1="-328.31" y1="731.3" x2="1369.07" y2="533.97"/><line class="cls-17" x1="-24.39" y1="731.3" x2="1962.01" y2="534.15"/><line class="cls-17" x1="-24.39" y1="731.3" x2="1727.15" y2="533.97"/><line class="cls-17" x1="-24.39" y1="731.3" x2="1456.75" y2="533.97"/><line class="cls-18" x1="1346.23" y1="731.3" x2="353.03" y2="534.15"/><line class="cls-18" x1="1346.23" y1="731.3" x2="470.46" y2="533.97"/><line class="cls-18" x1="1346.23" y1="731.3" x2="605.66" y2="533.97"/><line class="cls-7" x1="1028.4" y1="731.3" x2="35.21" y2="534.15"/><line class="cls-7" x1="1028.4" y1="731.3" x2="152.64" y2="533.97"/><line class="cls-7" x1="1028.4" y1="731.3" x2="287.84" y2="533.97"/><line class="cls-2" x1="571.53" y1="731.3" x2="968.81" y2="534.15"/><line class="cls-2" x1="571.53" y1="731.3" x2="921.84" y2="533.97"/><line class="cls-2" x1="571.53" y1="731.3" x2="867.76" y2="533.97"/><line class="cls-5" x1="1441.58" y1="544.59" x2="-834.84" y2="741.74"/><line class="cls-5" x1="1441.58" y1="544.59" x2="-565.68" y2="741.93"/><line class="cls-5" x1="1441.58" y1="544.59" x2="-255.8" y2="741.93"/><line class="cls-6" x1="-834.84" y1="544.59" x2="1441.58" y2="741.74"/><line class="cls-6" x1="-834.84" y1="544.59" x2="1172.42" y2="741.93"/><line class="cls-6" x1="-834.84" y1="544.59" x2="862.54" y2="741.93"/><line class="cls-17" x1="-530.92" y1="544.59" x2="1455.48" y2="741.74"/><line class="cls-17" x1="-530.92" y1="544.59" x2="1220.61" y2="741.93"/><line class="cls-17" x1="-530.92" y1="544.59" x2="950.21" y2="741.93"/><line class="cls-18" x1="839.7" y1="544.59" x2="-153.5" y2="741.74"/><line class="cls-18" x1="839.7" y1="544.59" x2="-36.07" y2="741.93"/><line class="cls-18" x1="839.7" y1="544.59" x2="99.13" y2="741.93"/><line class="cls-7" x1="521.87" y1="544.59" x2="-471.33" y2="741.74"/><line class="cls-7" x1="521.87" y1="544.59" x2="-353.89" y2="741.93"/><line class="cls-7" x1="521.87" y1="544.59" x2="-218.69" y2="741.93"/><line class="cls-2" x1="65" y1="544.59" x2="462.28" y2="741.74"/><line class="cls-2" x1="65" y1="544.59" x2="415.31" y2="741.93"/><line class="cls-2" x1="65" y1="544.59" x2="361.23" y2="741.93"/><line class="cls-12" x1="-70.1" y1="1040.51" x2="114.91" y2="-544.42"/><line class="cls-12" x1="-70.1" y1="1040.51" x2="115.08" y2="-357.02"/><line class="cls-12" x1="-70.1" y1="1040.51" x2="115.08" y2="-141.27"/><line class="cls-10" x1="-70.1" y1="-544.42" x2="114.91" y2="1040.51"/><line class="cls-10" x1="-70.1" y1="-544.42" x2="115.08" y2="853.11"/><line class="cls-10" x1="-70.1" y1="-544.42" x2="115.08" y2="637.36"/><line class="cls-9" x1="-70.1" y1="-332.82" x2="114.91" y2="1050.19"/><line class="cls-9" x1="-70.1" y1="-332.82" x2="115.08" y2="886.66"/><line class="cls-9" x1="-70.1" y1="-332.82" x2="115.08" y2="698.4"/><line class="cls-18" x1="-70.1" y1="621.45" x2="114.91" y2="-70.05"/><line class="cls-18" x1="-70.1" y1="621.45" x2="115.08" y2="11.71"/><line class="cls-18" x1="-70.1" y1="621.45" x2="115.08" y2="105.84"/><line class="cls-11" x1="-70.1" y1="400.17" x2="114.91" y2="-291.33"/><line class="cls-11" x1="-70.1" y1="400.17" x2="115.08" y2="-209.57"/><line class="cls-11" x1="-70.1" y1="400.17" x2="115.08" y2="-115.44"/><line class="cls-8" x1="-70.1" y1="82.08" x2="114.91" y2="358.68"/><line class="cls-8" x1="-70.1" y1="82.08" x2="115.08" y2="325.98"/><line class="cls-8" x1="-70.1" y1="82.08" x2="115.08" y2="288.33"/><line class="cls-12" x1="-87.98" y1="-411.65" x2="97.03" y2="1173.27"/><line class="cls-12" x1="-87.98" y1="-411.65" x2="97.2" y2="985.88"/><line class="cls-12" x1="-87.98" y1="-411.65" x2="97.2" y2="770.13"/><line class="cls-10" x1="-87.98" y1="1173.27" x2="97.03" y2="-411.65"/><line class="cls-10" x1="-87.98" y1="1173.27" x2="97.2" y2="-224.25"/><line class="cls-10" x1="-87.98" y1="1173.27" x2="97.2" y2="-8.51"/><line class="cls-9" x1="-87.98" y1="961.67" x2="97.03" y2="-421.33"/><line class="cls-9" x1="-87.98" y1="961.67" x2="97.2" y2="-257.81"/><line class="cls-9" x1="-87.98" y1="961.67" x2="97.2" y2="-69.55"/><line class="cls-18" x1="-87.98" y1="7.4" x2="97.03" y2="698.9"/><line class="cls-18" x1="-87.98" y1="7.4" x2="97.2" y2="617.14"/><line class="cls-18" x1="-87.98" y1="7.4" x2="97.2" y2="523.01"/><line class="cls-11" x1="-87.98" y1="228.68" x2="97.03" y2="920.18"/><line class="cls-11" x1="-87.98" y1="228.68" x2="97.2" y2="838.42"/><line class="cls-11" x1="-87.98" y1="228.68" x2="97.2" y2="744.29"/><line class="cls-8" x1="-87.98" y1="546.77" x2="97.03" y2="270.17"/><line class="cls-8" x1="-87.98" y1="546.77" x2="97.2" y2="302.88"/><line class="cls-8" x1="-87.98" y1="546.77" x2="97.2" y2="340.53"/><line class="cls-12" x1="-56.34" y1="1325.4" x2="128.67" y2="-259.52"/><line class="cls-12" x1="-56.34" y1="1325.4" x2="128.84" y2="-72.12"/><line class="cls-12" x1="-56.34" y1="1325.4" x2="128.84" y2="143.63"/><line class="cls-10" x1="-56.34" y1="-259.52" x2="128.67" y2="1325.4"/><line class="cls-10" x1="-56.34" y1="-259.52" x2="128.84" y2="1138.01"/><line class="cls-10" x1="-56.34" y1="-259.52" x2="128.84" y2="922.26"/><line class="cls-9" x1="-56.34" y1="-47.92" x2="128.67" y2="1335.09"/><line class="cls-9" x1="-56.34" y1="-47.92" x2="128.84" y2="1171.56"/><line class="cls-9" x1="-56.34" y1="-47.92" x2="128.84" y2="983.3"/><line class="cls-18" x1="-56.34" y1="906.35" x2="128.67" y2="214.85"/><line class="cls-18" x1="-56.34" y1="906.35" x2="128.84" y2="296.61"/><line class="cls-18" x1="-56.34" y1="906.35" x2="128.84" y2="390.74"/><line class="cls-11" x1="-56.34" y1="685.07" x2="128.67" y2="-6.43"/><line class="cls-11" x1="-56.34" y1="685.07" x2="128.84" y2="75.33"/><line class="cls-11" x1="-56.34" y1="685.07" x2="128.84" y2="169.46"/><line class="cls-8" x1="-56.34" y1="366.98" x2="128.67" y2="643.58"/><line class="cls-8" x1="-56.34" y1="366.98" x2="128.84" y2="610.88"/><line class="cls-8" x1="-56.34" y1="366.98" x2="128.84" y2="573.23"/><line class="cls-12" x1="118.87" y1="972.74" x2="-66.14" y2="-612.19"/><line class="cls-12" x1="118.87" y1="972.74" x2="-66.31" y2="-424.79"/><line class="cls-12" x1="118.87" y1="972.74" x2="-66.31" y2="-209.04"/><line class="cls-10" x1="118.87" y1="-612.19" x2="-66.14" y2="972.74"/><line class="cls-10" x1="118.87" y1="-612.19" x2="-66.31" y2="785.34"/><line class="cls-10" x1="118.87" y1="-612.19" x2="-66.31" y2="569.59"/><line class="cls-9" x1="118.87" y1="-400.59" x2="-66.14" y2="982.42"/><line class="cls-9" x1="118.87" y1="-400.59" x2="-66.31" y2="818.9"/><line class="cls-9" x1="118.87" y1="-400.59" x2="-66.31" y2="630.63"/><line class="cls-18" x1="118.87" y1="553.69" x2="-66.14" y2="-137.82"/><line class="cls-18" x1="118.87" y1="553.69" x2="-66.31" y2="-56.05"/><line class="cls-18" x1="118.87" y1="553.69" x2="-66.31" y2="38.08"/><line class="cls-11" x1="118.87" y1="332.41" x2="-66.14" y2="-359.1"/><line class="cls-11" x1="118.87" y1="332.41" x2="-66.31" y2="-277.34"/><line class="cls-11" x1="118.87" y1="332.41" x2="-66.31" y2="-183.2"/><line class="cls-8" x1="118.87" y1="14.31" x2="-66.14" y2="290.92"/><line class="cls-8" x1="118.87" y1="14.31" x2="-66.31" y2="258.21"/><line class="cls-8" x1="118.87" y1="14.31" x2="-66.31" y2="220.56"/><line class="cls-12" x1="893.73" y1="1040.51" x2="1078.74" y2="-544.42"/><line class="cls-12" x1="893.73" y1="1040.51" x2="1078.91" y2="-357.02"/><line class="cls-12" x1="893.73" y1="1040.51" x2="1078.91" y2="-141.27"/><line class="cls-10" x1="893.73" y1="-544.42" x2="1078.74" y2="1040.51"/><line class="cls-10" x1="893.73" y1="-544.42" x2="1078.91" y2="853.11"/><line class="cls-10" x1="893.73" y1="-544.42" x2="1078.91" y2="637.36"/><line class="cls-9" x1="893.73" y1="-332.82" x2="1078.74" y2="1050.19"/><line class="cls-9" x1="893.73" y1="-332.82" x2="1078.91" y2="886.66"/><line class="cls-9" x1="893.73" y1="-332.82" x2="1078.91" y2="698.4"/><line class="cls-18" x1="893.73" y1="621.45" x2="1078.74" y2="-70.05"/><line class="cls-18" x1="893.73" y1="621.45" x2="1078.91" y2="11.71"/><line class="cls-18" x1="893.73" y1="621.45" x2="1078.91" y2="105.84"/><line class="cls-11" x1="893.73" y1="400.17" x2="1078.74" y2="-291.33"/><line class="cls-11" x1="893.73" y1="400.17" x2="1078.91" y2="-209.57"/><line class="cls-11" x1="893.73" y1="400.17" x2="1078.91" y2="-115.44"/><line class="cls-8" x1="893.73" y1="82.08" x2="1078.74" y2="358.68"/><line class="cls-8" x1="893.73" y1="82.08" x2="1078.91" y2="325.98"/><line class="cls-8" x1="893.73" y1="82.08" x2="1078.91" y2="288.33"/><line class="cls-12" x1="875.85" y1="-411.65" x2="1060.86" y2="1173.27"/><line class="cls-12" x1="875.85" y1="-411.65" x2="1061.03" y2="985.88"/><line class="cls-12" x1="875.85" y1="-411.65" x2="1061.03" y2="770.13"/><line class="cls-10" x1="875.85" y1="1173.27" x2="1060.86" y2="-411.65"/><line class="cls-10" x1="875.85" y1="1173.27" x2="1061.03" y2="-224.25"/><line class="cls-10" x1="875.85" y1="1173.27" x2="1061.03" y2="-8.51"/><line class="cls-9" x1="875.85" y1="961.67" x2="1060.86" y2="-421.33"/><line class="cls-9" x1="875.85" y1="961.67" x2="1061.03" y2="-257.81"/><line class="cls-9" x1="875.85" y1="961.67" x2="1061.03" y2="-69.55"/><line class="cls-18" x1="875.85" y1="7.4" x2="1060.86" y2="698.9"/><line class="cls-18" x1="875.85" y1="7.4" x2="1061.03" y2="617.14"/><line class="cls-18" x1="875.85" y1="7.4" x2="1061.03" y2="523.01"/><line class="cls-11" x1="875.85" y1="228.68" x2="1060.86" y2="920.18"/><line class="cls-11" x1="875.85" y1="228.68" x2="1061.03" y2="838.42"/><line class="cls-11" x1="875.85" y1="228.68" x2="1061.03" y2="744.29"/><line class="cls-8" x1="875.85" y1="546.77" x2="1060.86" y2="270.17"/><line class="cls-8" x1="875.85" y1="546.77" x2="1061.03" y2="302.88"/><line class="cls-8" x1="875.85" y1="546.77" x2="1061.03" y2="340.53"/><line class="cls-12" x1="907.49" y1="1325.4" x2="1092.5" y2="-259.52"/><line class="cls-12" x1="907.49" y1="1325.4" x2="1092.67" y2="-72.12"/><line class="cls-12" x1="907.49" y1="1325.4" x2="1092.67" y2="143.63"/><line class="cls-10" x1="907.49" y1="-259.52" x2="1092.5" y2="1325.4"/><line class="cls-10" x1="907.49" y1="-259.52" x2="1092.67" y2="1138.01"/><line class="cls-10" x1="907.49" y1="-259.52" x2="1092.67" y2="922.26"/><line class="cls-9" x1="907.49" y1="-47.92" x2="1092.5" y2="1335.09"/><line class="cls-9" x1="907.49" y1="-47.92" x2="1092.67" y2="1171.56"/><line class="cls-9" x1="907.49" y1="-47.92" x2="1092.67" y2="983.3"/><line class="cls-18" x1="907.49" y1="906.35" x2="1092.5" y2="214.85"/><line class="cls-18" x1="907.49" y1="906.35" x2="1092.67" y2="296.61"/><line class="cls-18" x1="907.49" y1="906.35" x2="1092.67" y2="390.74"/><line class="cls-11" x1="907.49" y1="685.07" x2="1092.5" y2="-6.43"/><line class="cls-11" x1="907.49" y1="685.07" x2="1092.67" y2="75.33"/><line class="cls-11" x1="907.49" y1="685.07" x2="1092.67" y2="169.46"/><line class="cls-8" x1="907.49" y1="366.98" x2="1092.5" y2="643.58"/><line class="cls-8" x1="907.49" y1="366.98" x2="1092.67" y2="610.88"/><line class="cls-8" x1="907.49" y1="366.98" x2="1092.67" y2="573.23"/><line class="cls-12" x1="1082.69" y1="972.74" x2="897.69" y2="-612.19"/><line class="cls-12" x1="1082.69" y1="972.74" x2="897.52" y2="-424.79"/><line class="cls-12" x1="1082.69" y1="972.74" x2="897.52" y2="-209.04"/><line class="cls-10" x1="1082.69" y1="-612.19" x2="897.69" y2="972.74"/><line class="cls-10" x1="1082.69" y1="-612.19" x2="897.52" y2="785.34"/><line class="cls-10" x1="1082.69" y1="-612.19" x2="897.52" y2="569.59"/><line class="cls-9" x1="1082.69" y1="-400.59" x2="897.69" y2="982.42"/><line class="cls-9" x1="1082.69" y1="-400.59" x2="897.52" y2="818.9"/><line class="cls-9" x1="1082.69" y1="-400.59" x2="897.52" y2="630.63"/><line class="cls-18" x1="1082.69" y1="553.69" x2="897.69" y2="-137.82"/><line class="cls-18" x1="1082.69" y1="553.69" x2="897.52" y2="-56.05"/><line class="cls-18" x1="1082.69" y1="553.69" x2="897.52" y2="38.08"/><line class="cls-11" x1="1082.69" y1="332.41" x2="897.69" y2="-359.1"/><line class="cls-11" x1="1082.69" y1="332.41" x2="897.52" y2="-277.34"/><line class="cls-11" x1="1082.69" y1="332.41" x2="897.52" y2="-183.2"/><line class="cls-8" x1="1082.69" y1="14.31" x2="897.69" y2="290.92"/><line class="cls-8" x1="1082.69" y1="14.31" x2="897.52" y2="258.21"/><line class="cls-8" x1="1082.69" y1="14.31" x2="897.52" y2="220.56"/><line class="cls-13" x1="1473.19" y1="89.08" x2="-630.53" y2="-144.39"/><line class="cls-13" x1="1473.19" y1="89.08" x2="-381.79" y2="-144.61"/><line class="cls-13" x1="1473.19" y1="89.08" x2="-95.42" y2="-144.61"/><line class="cls-15" x1="-630.53" y1="89.08" x2="1473.19" y2="-144.39"/><line class="cls-15" x1="-630.53" y1="89.08" x2="1224.46" y2="-144.61"/><line class="cls-15" x1="-630.53" y1="89.08" x2="938.09" y2="-144.61"/><line class="cls-4" x1="-349.66" y1="89.08" x2="1486.04" y2="-144.39"/><line class="cls-4" x1="-349.66" y1="89.08" x2="1268.99" y2="-144.61"/><line class="cls-4" x1="-349.66" y1="89.08" x2="1019.11" y2="-144.61"/><line class="cls-18" x1="916.97" y1="89.08" x2="-.88" y2="-144.39"/><line class="cls-18" x1="916.97" y1="89.08" x2="107.65" y2="-144.61"/><line class="cls-18" x1="916.97" y1="89.08" x2="232.59" y2="-144.61"/><line class="cls-14" x1="623.26" y1="89.08" x2="-294.59" y2="-144.39"/><line class="cls-14" x1="623.26" y1="89.08" x2="-186.07" y2="-144.61"/><line class="cls-14" x1="623.26" y1="89.08" x2="-61.12" y2="-144.61"/><line class="cls-3" x1="201.05" y1="89.08" x2="568.19" y2="-144.39"/><line class="cls-3" x1="201.05" y1="89.08" x2="524.78" y2="-144.61"/><line class="cls-3" x1="201.05" y1="89.08" x2="474.8" y2="-144.61"/><line class="cls-13" x1="-454.3" y1="111.64" x2="1649.42" y2="-121.83"/><line class="cls-13" x1="-454.3" y1="111.64" x2="1400.68" y2="-122.04"/><line class="cls-13" x1="-454.3" y1="111.64" x2="1114.31" y2="-122.04"/><line class="cls-15" x1="1649.42" y1="111.64" x2="-454.3" y2="-121.83"/><line class="cls-15" x1="1649.42" y1="111.64" x2="-205.56" y2="-122.04"/><line class="cls-15" x1="1649.42" y1="111.64" x2="80.81" y2="-122.04"/><line class="cls-4" x1="1368.56" y1="111.64" x2="-467.15" y2="-121.83"/><line class="cls-4" x1="1368.56" y1="111.64" x2="-250.1" y2="-122.04"/><line class="cls-4" x1="1368.56" y1="111.64" x2="-.21" y2="-122.04"/><line class="cls-18" x1="101.92" y1="111.64" x2="1019.77" y2="-121.83"/><line class="cls-18" x1="101.92" y1="111.64" x2="911.25" y2="-122.04"/><line class="cls-18" x1="101.92" y1="111.64" x2="786.31" y2="-122.04"/><line class="cls-14" x1="395.63" y1="111.64" x2="1313.49" y2="-121.83"/><line class="cls-14" x1="395.63" y1="111.64" x2="1204.96" y2="-122.04"/><line class="cls-14" x1="395.63" y1="111.64" x2="1080.02" y2="-122.04"/><line class="cls-3" x1="817.85" y1="111.64" x2="450.71" y2="-121.83"/><line class="cls-3" x1="817.85" y1="111.64" x2="494.12" y2="-122.04"/><line class="cls-3" x1="817.85" y1="111.64" x2="544.09" y2="-122.04"/><line class="cls-13" x1="1851.35" y1="71.72" x2="-252.37" y2="-161.75"/><line class="cls-13" x1="1851.35" y1="71.72" x2="-3.63" y2="-161.97"/><line class="cls-13" x1="1851.35" y1="71.72" x2="282.74" y2="-161.97"/><line class="cls-15" x1="-252.37" y1="71.72" x2="1851.35" y2="-161.75"/><line class="cls-15" x1="-252.37" y1="71.72" x2="1602.61" y2="-161.97"/><line class="cls-15" x1="-252.37" y1="71.72" x2="1316.24" y2="-161.97"/><line class="cls-4" x1="28.49" y1="71.72" x2="1864.2" y2="-161.75"/><line class="cls-4" x1="28.49" y1="71.72" x2="1647.15" y2="-161.97"/><line class="cls-4" x1="28.49" y1="71.72" x2="1397.26" y2="-161.97"/><line class="cls-18" x1="1295.13" y1="71.72" x2="377.28" y2="-161.75"/><line class="cls-18" x1="1295.13" y1="71.72" x2="485.8" y2="-161.97"/><line class="cls-18" x1="1295.13" y1="71.72" x2="610.74" y2="-161.97"/><line class="cls-14" x1="1001.42" y1="71.72" x2="83.56" y2="-161.75"/><line class="cls-14" x1="1001.42" y1="71.72" x2="192.09" y2="-161.97"/><line class="cls-14" x1="1001.42" y1="71.72" x2="317.03" y2="-161.97"/><line class="cls-3" x1="579.2" y1="71.72" x2="946.35" y2="-161.75"/><line class="cls-3" x1="579.2" y1="71.72" x2="902.94" y2="-161.97"/><line class="cls-3" x1="579.2" y1="71.72" x2="852.96" y2="-161.97"/><line class="cls-13" x1="1383.24" y1="-149.38" x2="-720.48" y2="84.09"/><line class="cls-13" x1="1383.24" y1="-149.38" x2="-471.74" y2="84.3"/><line class="cls-13" x1="1383.24" y1="-149.38" x2="-185.37" y2="84.3"/><line class="cls-15" x1="-720.48" y1="-149.38" x2="1383.24" y2="84.09"/><line class="cls-15" x1="-720.48" y1="-149.38" x2="1134.51" y2="84.3"/><line class="cls-15" x1="-720.48" y1="-149.38" x2="848.14" y2="84.3"/><line class="cls-4" x1="-439.61" y1="-149.38" x2="1396.09" y2="84.09"/><line class="cls-4" x1="-439.61" y1="-149.38" x2="1179.05" y2="84.3"/><line class="cls-4" x1="-439.61" y1="-149.38" x2="929.16" y2="84.3"/><line class="cls-18" x1="827.03" y1="-149.38" x2="-90.83" y2="84.09"/><line class="cls-18" x1="827.03" y1="-149.38" x2="17.7" y2="84.3"/><line class="cls-18" x1="827.03" y1="-149.38" x2="142.64" y2="84.3"/><line class="cls-14" x1="533.31" y1="-149.38" x2="-384.54" y2="84.09"/><line class="cls-14" x1="533.31" y1="-149.38" x2="-276.02" y2="84.3"/><line class="cls-14" x1="533.31" y1="-149.38" x2="-151.07" y2="84.3"/><line class="cls-3" x1="111.1" y1="-149.38" x2="478.24" y2="84.09"/><line class="cls-3" x1="111.1" y1="-149.38" x2="434.83" y2="84.3"/><line class="cls-3" x1="111.1" y1="-149.38" x2="384.85" y2="84.3"/><line class="cls-5" x1="1583.84" y1="717.61" x2="-692.57" y2="520.46"/><line class="cls-5" x1="1583.84" y1="717.61" x2="-423.41" y2="520.27"/><line class="cls-5" x1="1583.84" y1="717.61" x2="-113.53" y2="520.27"/><line class="cls-6" x1="-692.57" y1="717.61" x2="1583.84" y2="520.46"/><line class="cls-6" x1="-692.57" y1="717.61" x2="1314.69" y2="520.27"/><line class="cls-6" x1="-692.57" y1="717.61" x2="1004.81" y2="520.27"/><line class="cls-17" x1="-388.65" y1="717.61" x2="1597.75" y2="520.46"/><line class="cls-17" x1="-388.65" y1="717.61" x2="1362.88" y2="520.27"/><line class="cls-17" x1="-388.65" y1="717.61" x2="1092.48" y2="520.27"/><line class="cls-18" x1="981.96" y1="717.61" x2="-11.24" y2="520.46"/><line class="cls-18" x1="981.96" y1="717.61" x2="106.2" y2="520.27"/><line class="cls-18" x1="981.96" y1="717.61" x2="241.4" y2="520.27"/><line class="cls-7" x1="664.14" y1="717.61" x2="-329.06" y2="520.46"/><line class="cls-7" x1="664.14" y1="717.61" x2="-211.63" y2="520.27"/><line class="cls-7" x1="664.14" y1="717.61" x2="-76.43" y2="520.27"/><line class="cls-2" x1="207.27" y1="717.61" x2="604.55" y2="520.46"/><line class="cls-2" x1="207.27" y1="717.61" x2="557.58" y2="520.27"/><line class="cls-2" x1="207.27" y1="717.61" x2="503.5" y2="520.27"/><line class="cls-5" x1="-501.88" y1="736.66" x2="1774.54" y2="539.51"/><line class="cls-5" x1="-501.88" y1="736.66" x2="1505.38" y2="539.33"/><line class="cls-5" x1="-501.88" y1="736.66" x2="1195.5" y2="539.33"/><line class="cls-6" x1="1774.54" y1="736.66" x2="-501.88" y2="539.51"/><line class="cls-6" x1="1774.54" y1="736.66" x2="-232.72" y2="539.33"/><line class="cls-6" x1="1774.54" y1="736.66" x2="77.16" y2="539.33"/><line class="cls-17" x1="1470.62" y1="736.66" x2="-515.78" y2="539.51"/><line class="cls-17" x1="1470.62" y1="736.66" x2="-280.91" y2="539.33"/><line class="cls-17" x1="1470.62" y1="736.66" x2="-10.51" y2="539.33"/><line class="cls-18" x1="100" y1="736.66" x2="1093.2" y2="539.51"/><line class="cls-18" x1="100" y1="736.66" x2="975.77" y2="539.33"/><line class="cls-18" x1="100" y1="736.66" x2="840.57" y2="539.33"/><line class="cls-7" x1="417.83" y1="736.66" x2="1411.03" y2="539.51"/><line class="cls-7" x1="417.83" y1="736.66" x2="1293.59" y2="539.33"/><line class="cls-7" x1="417.83" y1="736.66" x2="1158.39" y2="539.33"/><line class="cls-2" x1="874.7" y1="736.66" x2="477.42" y2="539.51"/><line class="cls-2" x1="874.7" y1="736.66" x2="524.39" y2="539.33"/><line class="cls-2" x1="874.7" y1="736.66" x2="578.47" y2="539.33"/><line class="cls-5" x1="1993.04" y1="702.95" x2="-283.37" y2="505.8"/><line class="cls-5" x1="1993.04" y1="702.95" x2="-14.21" y2="505.61"/><line class="cls-5" x1="1993.04" y1="702.95" x2="295.66" y2="505.61"/><line class="cls-6" x1="-283.37" y1="702.95" x2="1993.04" y2="505.8"/><line class="cls-6" x1="-283.37" y1="702.95" x2="1723.88" y2="505.61"/><line class="cls-6" x1="-283.37" y1="702.95" x2="1414.01" y2="505.61"/><line class="cls-17" x1="20.55" y1="702.95" x2="2006.95" y2="505.8"/><line class="cls-17" x1="20.55" y1="702.95" x2="1772.08" y2="505.61"/><line class="cls-17" x1="20.55" y1="702.95" x2="1501.68" y2="505.61"/><line class="cls-18" x1="1391.16" y1="702.95" x2="397.96" y2="505.8"/><line class="cls-18" x1="1391.16" y1="702.95" x2="515.4" y2="505.61"/><line class="cls-18" x1="1391.16" y1="702.95" x2="650.6" y2="505.61"/><line class="cls-7" x1="1073.34" y1="702.95" x2="80.14" y2="505.8"/><line class="cls-7" x1="1073.34" y1="702.95" x2="197.57" y2="505.61"/><line class="cls-7" x1="1073.34" y1="702.95" x2="332.77" y2="505.61"/><line class="cls-2" x1="616.47" y1="702.95" x2="1013.75" y2="505.8"/><line class="cls-2" x1="616.47" y1="702.95" x2="966.77" y2="505.61"/><line class="cls-2" x1="616.47" y1="702.95" x2="912.69" y2="505.61"/><line class="cls-5" x1="1486.51" y1="516.24" x2="-789.9" y2="713.39"/><line class="cls-5" x1="1486.51" y1="516.24" x2="-520.75" y2="713.57"/><line class="cls-5" x1="1486.51" y1="516.24" x2="-210.87" y2="713.57"/><line class="cls-6" x1="-789.9" y1="516.24" x2="1486.51" y2="713.39"/><line class="cls-6" x1="-789.9" y1="516.24" x2="1217.35" y2="713.57"/><line class="cls-6" x1="-789.9" y1="516.24" x2="907.47" y2="713.57"/><line class="cls-17" x1="-485.98" y1="516.24" x2="1500.41" y2="713.39"/><line class="cls-17" x1="-485.98" y1="516.24" x2="1265.55" y2="713.57"/><line class="cls-17" x1="-485.98" y1="516.24" x2="995.15" y2="713.57"/><line class="cls-18" x1="884.63" y1="516.24" x2="-108.57" y2="713.39"/><line class="cls-18" x1="884.63" y1="516.24" x2="8.86" y2="713.57"/><line class="cls-18" x1="884.63" y1="516.24" x2="144.06" y2="713.57"/><line class="cls-7" x1="566.81" y1="516.24" x2="-426.39" y2="713.39"/><line class="cls-7" x1="566.81" y1="516.24" x2="-308.96" y2="713.57"/><line class="cls-7" x1="566.81" y1="516.24" x2="-173.76" y2="713.57"/><line class="cls-2" x1="109.93" y1="516.24" x2="507.21" y2="713.39"/><line class="cls-2" x1="109.93" y1="516.24" x2="460.24" y2="713.57"/><line class="cls-2" x1="109.93" y1="516.24" x2="406.16" y2="713.57"/></g></g></svg>